<svg width="11" height="10" viewBox="0 0 11 10" fill="none" xmlns="http://www.w3.org/2000/svg">
<path d="M6.75 3H6V5.5L8.14 6.77L8.5 6.165L6.75 5.125V3ZM6.5 0.5C5.30653 0.5 4.16193 0.974106 3.31802 1.81802C2.47411 2.66193 2 3.80653 2 5H0.5L2.48 7.015L4.5 5H3C3 4.07174 3.36875 3.1815 4.02513 2.52513C4.6815 1.86875 5.57174 1.5 6.5 1.5C7.42826 1.5 8.3185 1.86875 8.97487 2.52513C9.63125 3.1815 10 4.07174 10 5C10 5.92826 9.63125 6.8185 8.97487 7.47487C8.3185 8.13125 7.42826 8.5 6.5 8.5C5.535 8.5 4.66 8.105 4.03 7.47L3.32 8.18C3.73574 8.60031 4.23109 8.93353 4.7771 9.16017C5.32311 9.38682 5.90882 9.50234 6.5 9.5C7.69347 9.5 8.83807 9.02589 9.68198 8.18198C10.5259 7.33807 11 6.19347 11 5C11 3.80653 10.5259 2.66193 9.68198 1.81802C8.83807 0.974106 7.69347 0.5 6.5 0.5Z" fill="#4E4E4E"/>
</svg>
