<svg width="15" height="15" viewBox="0 0 15 15" fill="none" xmlns="http://www.w3.org/2000/svg">
<path d="M14.4944 0.492597C14.3092 0.307347 14.0657 0.214722 13.8229 0.214722C13.58 0.214722 13.3366 0.307347 13.1513 0.492597L10.3572 3.28619V2.75716H0.227783V14.7859H12.2566V4.65657H11.6741L14.4944 1.83566C14.8655 1.46516 14.8655 0.86369 14.4944 0.492597ZM11.623 14.1524H0.860721V3.3901H10.2533L5.29188 8.35088V9.72066H6.60941L11.623 4.70644V14.1518V14.1524ZM14.0467 1.38797L6.34756 9.08772H5.92541V8.61272L13.599 0.939097C13.6792 0.85894 13.7736 0.847065 13.8223 0.847065C13.871 0.847065 13.966 0.858941 14.0461 0.939691C14.1269 1.02044 14.1393 1.11485 14.1393 1.16353C14.1393 1.21222 14.1275 1.30603 14.0461 1.38738L14.0467 1.38797Z" fill="black"/>
</svg>
