<svg width="14" height="14" viewBox="0 0 14 14" fill="none" xmlns="http://www.w3.org/2000/svg">
<path d="M7.00291 0L0 3.48564V14H0.557908V3.8187L7.00291 0.625923L13.4537 3.83019V14H14V3.48564L7.00291 0ZM11.286 8.30927L10.4259 6.11567C10.269 5.70221 9.91449 5.34044 9.24616 5.34044H8.03155H5.95683H4.73059C4.07389 5.34044 3.7252 5.69647 3.55085 6.11567L2.69074 8.30927C2.35367 8.35521 1.74927 8.74569 1.74927 9.49221V12.283H2.58614V13.1788C2.58614 14.2756 4.16106 14.2699 4.16106 13.1788V12.283H6.99709H9.83313V13.1788C9.83313 14.2699 11.4081 14.2756 11.4081 13.1788V12.283H12.2449V9.49221C12.2275 8.74569 11.6289 8.34372 11.286 8.30927ZM3.39394 10.6005C2.99875 10.6005 2.6675 10.2674 2.6675 9.85972C2.6675 9.45775 2.99294 9.11895 3.39394 9.11895C3.78912 9.11895 4.12038 9.45201 4.12038 9.85972C4.12038 10.2674 3.80075 10.6005 3.39394 10.6005ZM6.98547 8.2863H3.58572L4.2308 6.55783C4.30635 6.31091 4.4342 6.14438 4.71897 6.1329H6.98547H9.25197C9.53674 6.1329 9.65878 6.31091 9.74014 6.55783L10.3852 8.2863H6.98547ZM10.5886 10.6005C10.1934 10.6005 9.86218 10.2674 9.86218 9.85972C9.86218 9.45775 10.1876 9.11895 10.5886 9.11895C10.9896 9.11895 11.3151 9.45201 11.3151 9.85972C11.3151 10.2674 10.9838 10.6005 10.5886 10.6005Z" fill="#3D4164"/>
</svg>
