<svg width="13" height="18" viewBox="0 0 13 18" fill="none" xmlns="http://www.w3.org/2000/svg">
<path d="M12.2402 5.81591C12.1797 7.38512 11.5861 8.88682 10.5572 10.0732C10.2525 10.4127 10.0201 10.8106 9.87416 11.2428V12.4557C9.87416 12.7504 9.7571 13.033 9.54872 13.2413C9.34035 13.4497 9.05773 13.5668 8.76305 13.5668H4.42387C4.12918 13.5668 3.84657 13.4497 3.63819 13.2413C3.42982 13.033 3.31276 12.7504 3.31276 12.4557V11.2428C3.16673 10.8107 2.93434 10.4127 2.62972 10.0732C1.60001 8.88714 1.0055 7.38541 0.944336 5.81591C0.944301 4.51215 1.39522 3.24852 2.22063 2.23931C3.04603 1.23011 4.1951 0.537475 5.47296 0.278875C6.75081 0.0202755 8.07877 0.211633 9.23163 0.820493C10.3845 1.42935 11.2912 2.41823 11.7981 3.61942C12.0928 4.31496 12.244 5.06285 12.2426 5.81825L12.2402 5.81591ZM11.1291 5.81591C11.1291 4.61297 10.6513 3.45931 9.80066 2.6087C8.95006 1.7581 7.79639 1.28024 6.59346 1.28024C5.39052 1.28024 4.23686 1.7581 3.38625 2.6087C2.53565 3.45931 2.05779 4.61297 2.05779 5.81591C2.05779 8.57965 4.42387 9.80304 4.42387 11.2428V12.4557H8.76305V11.2428C8.76305 9.80304 11.1291 8.57965 11.1291 5.81591ZM9.3186 14.8709C9.31876 14.9439 9.3045 15.0163 9.27665 15.0838C9.2488 15.1514 9.2079 15.2128 9.1563 15.2645C9.1047 15.3162 9.0434 15.3572 8.97592 15.3852C8.90844 15.4132 8.8361 15.4276 8.76305 15.4276H4.42387C4.27653 15.4276 4.13522 15.3691 4.03103 15.2649C3.92684 15.1607 3.86831 15.0194 3.86831 14.872C3.86831 14.7247 3.92684 14.5834 4.03103 14.4792C4.13522 14.375 4.27653 14.3165 4.42387 14.3165H8.76305C8.91019 14.3165 9.05132 14.3749 9.15547 14.4788C9.25963 14.5827 9.31829 14.7237 9.3186 14.8709ZM8.57007 16.3469C8.58899 16.4016 8.59037 16.4609 8.57402 16.5165C8.55767 16.572 8.5244 16.6211 8.47884 16.6568C7.93121 17.0821 7.25758 17.3129 6.56422 17.3129C5.87086 17.3129 5.19723 17.0821 4.6496 16.6568C4.6036 16.6215 4.56984 16.5727 4.55305 16.5172C4.53627 16.4617 4.53731 16.4023 4.55603 16.3475C4.57476 16.2926 4.61022 16.245 4.65742 16.2113C4.70463 16.1776 4.76121 16.1596 4.81919 16.1598H8.30808C8.36595 16.1597 8.4224 16.1777 8.46956 16.2113C8.51673 16.2448 8.5511 16.2922 8.57007 16.3469Z" fill="#2A8787"/>
</svg>
