<svg width="15" height="15" viewBox="0 0 15 15" fill="none" xmlns="http://www.w3.org/2000/svg">
<circle cx="7.5" cy="7.5" r="7.25" stroke="black" stroke-width="0.5"/>
<path d="M9.73564 9.33141V10.0914H5.27564L5.11564 9.57141C5.39564 9.25808 5.60231 8.95808 5.73564 8.67141C5.87564 8.38474 5.94564 8.03141 5.94564 7.61141C5.94564 7.43808 5.91564 7.23141 5.85564 6.99141H4.72564V6.35141H5.63564C5.54898 6.11808 5.48231 5.89808 5.43564 5.69141C5.38898 5.47808 5.36564 5.24474 5.36564 4.99141C5.36564 4.56474 5.45564 4.19474 5.63564 3.88141C5.82231 3.56141 6.07898 3.31474 6.40564 3.14141C6.73898 2.96808 7.11898 2.88141 7.54564 2.88141C8.22564 2.88141 8.74898 3.07808 9.11564 3.47141C9.48231 3.86474 9.67898 4.36141 9.70565 4.96141H8.86564C8.85231 4.56808 8.73231 4.25141 8.50564 4.01141C8.28564 3.77141 7.96564 3.65141 7.54564 3.65141C7.15898 3.65141 6.84231 3.76474 6.59564 3.99141C6.35564 4.21808 6.23564 4.56474 6.23564 5.03141C6.23564 5.25141 6.25898 5.46141 6.30564 5.66141C6.35231 5.85474 6.42231 6.08474 6.51564 6.35141H8.45564V6.99141H6.71564C6.77564 7.23141 6.80564 7.43808 6.80564 7.61141C6.80564 8.24474 6.56898 8.81808 6.09564 9.33141H9.73564Z" fill="black"/>
</svg>
