<svg width="19" height="19" viewBox="0 0 19 19" fill="none" xmlns="http://www.w3.org/2000/svg">
<path d="M6.11272 8.0354H4.26447C4.10751 8.0354 3.98047 8.16244 3.98047 8.3194V10.1677C3.98047 10.3244 4.10751 10.4517 4.26447 10.4517H6.11272C6.26968 10.4517 6.39672 10.3244 6.39672 10.1677V8.3194C6.39672 8.16263 6.26968 8.0354 6.11272 8.0354ZM5.82872 9.88366H4.54846V8.6034H5.82872V9.88366Z" fill="black"/>
<path d="M10.4233 8.0354H8.57501C8.41806 8.0354 8.29102 8.16244 8.29102 8.3194V10.1677C8.29102 10.3244 8.41806 10.4517 8.57501 10.4517H10.4233C10.58 10.4517 10.7073 10.3244 10.7073 10.1677V8.3194C10.7073 8.16263 10.58 8.0354 10.4233 8.0354ZM10.1393 9.88366H8.85901V8.6034H10.1393V9.88366Z" fill="black"/>
<path d="M14.6012 8.0354H12.753C12.5962 8.0354 12.469 8.16244 12.469 8.3194V10.1677C12.469 10.3244 12.5962 10.4517 12.753 10.4517H14.6012C14.758 10.4517 14.8852 10.3244 14.8852 10.1677V8.3194C14.8852 8.16263 14.758 8.0354 14.6012 8.0354ZM14.3173 9.88366H13.037V8.6034H14.3173V9.88366Z" fill="black"/>
<path d="M6.11272 12.2454H4.26447C4.10751 12.2454 3.98047 12.3726 3.98047 12.5294V14.3776C3.98047 14.5344 4.10751 14.6616 4.26447 14.6616H6.11272C6.26968 14.6616 6.39672 14.5344 6.39672 14.3776V12.5294C6.39672 12.3726 6.26968 12.2454 6.11272 12.2454ZM5.82872 14.0936H4.54846V12.8134H5.82872V14.0936Z" fill="black"/>
<path d="M10.4233 12.2454H8.57501C8.41806 12.2454 8.29102 12.3726 8.29102 12.5294V14.3776C8.29102 14.5344 8.41806 14.6616 8.57501 14.6616H10.4233C10.58 14.6616 10.7073 14.5344 10.7073 14.3776V12.5294C10.7073 12.3726 10.58 12.2454 10.4233 12.2454ZM10.1393 14.0936H8.85901V12.8134H10.1393V14.0936Z" fill="black"/>
<path d="M14.6012 12.2454H12.753C12.5962 12.2454 12.469 12.3726 12.469 12.5294V14.3776C12.469 14.5344 12.5962 14.6616 12.753 14.6616H14.6012C14.758 14.6616 14.8852 14.5344 14.8852 14.3776V12.5294C14.8852 12.3726 14.758 12.2454 14.6012 12.2454ZM14.3173 14.0936H13.037V12.8134H14.3173V14.0936Z" fill="black"/>
<path d="M16.8504 2.53588H14.9747C14.9722 2.53588 14.9701 2.53645 14.9677 2.53664V2.15836C14.9677 1.53962 14.4644 1.03638 13.8457 1.03638C13.227 1.03638 12.7237 1.53981 12.7237 2.15836V2.53588H10.6102V2.15836C10.6102 1.53962 10.107 1.03638 9.48824 1.03638C8.8695 1.03638 8.36626 1.53981 8.36626 2.15836V2.53588H6.25256V2.15836C6.25256 1.53962 5.74932 1.03638 5.13058 1.03638C4.51185 1.03638 4.0086 1.53981 4.0086 2.15836V2.53607C4.00766 2.53607 4.00671 2.53588 4.00576 2.53588H2.13043C1.97348 2.53588 1.84644 2.66293 1.84644 2.81988V17.5397C1.84644 17.6964 1.97348 17.8237 2.13043 17.8237H16.8504C17.0072 17.8237 17.1344 17.6964 17.1344 17.5397V2.81988C17.1344 2.66293 17.0072 2.53588 16.8504 2.53588ZM13.2917 2.15836C13.2917 1.85278 13.5401 1.60437 13.8457 1.60437C14.1513 1.60437 14.3997 1.85278 14.3997 2.15836V3.72545C14.3997 4.03085 14.1513 4.27944 13.8457 4.27944C13.5401 4.27944 13.2917 4.03104 13.2917 3.72545V2.15836ZM9.48824 1.60437C9.79363 1.60437 10.0422 1.85278 10.0422 2.15836V3.72545C10.0422 4.03085 9.79382 4.27944 9.48824 4.27944C9.18266 4.27944 8.93426 4.03104 8.93426 3.72545V2.84639C8.93501 2.83749 8.93691 2.82897 8.93691 2.81969C8.93691 2.81041 8.93501 2.80189 8.93426 2.793V2.15836C8.93426 1.85278 9.18266 1.60437 9.48824 1.60437ZM4.5766 2.15836C4.5766 1.85278 4.825 1.60437 5.13058 1.60437C5.43597 1.60437 5.68457 1.85278 5.68457 2.15836V3.72545C5.68457 4.03085 5.43616 4.27944 5.13058 4.27944C4.825 4.27944 4.5766 4.03104 4.5766 3.72545V2.15836ZM16.5664 17.2557H2.41443V3.10388H4.00576C4.00671 3.10388 4.00766 3.10369 4.0086 3.10369V3.72564C4.0086 4.34438 4.51204 4.84762 5.13058 4.84762C5.74913 4.84762 6.25256 4.34438 6.25256 3.72564V3.10407H8.36626V3.72564C8.36626 4.34438 8.86969 4.84762 9.48824 4.84762C10.1068 4.84762 10.6102 4.34438 10.6102 3.72564V3.10407H12.7237V3.72564C12.7237 4.34438 13.227 4.84762 13.8457 4.84762C14.4644 4.84762 14.9677 4.34438 14.9677 3.72564V3.10312C14.9701 3.10312 14.9722 3.10388 14.9747 3.10388H16.5664V17.2557Z" fill="black"/>
</svg>
