<svg width="14" height="14" viewBox="0 0 14 14" fill="none" xmlns="http://www.w3.org/2000/svg">
<path d="M0.4375 3.30322C0.284375 3.30322 0.164062 3.18291 0.164062 3.02979C0.164062 2.87666 0.284375 2.75635 0.4375 2.75635L13.2891 2.77822C13.4422 2.77822 13.5625 2.89854 13.5625 3.05166C13.5625 3.20479 13.4422 3.3251 13.2891 3.3251L0.4375 3.30322ZM2.54844 3.86103C2.54844 3.70791 2.66875 3.5876 2.82187 3.5876C2.975 3.5876 3.09531 3.70791 3.09531 3.86103V13.2782L11.1016 13.1907V3.95947C11.1016 3.80635 11.2219 3.68604 11.375 3.68604C11.5281 3.68604 11.6484 3.80635 11.6484 3.95947V13.7595L2.5375 13.8579V3.86103H2.54844Z" fill="black"/>
<path d="M9.32968 11.8563C9.17656 11.8563 9.05624 11.736 9.05624 11.5829V5.08599C9.05624 4.93286 9.17656 4.81255 9.32968 4.81255C9.48281 4.81255 9.60312 4.93286 9.60312 5.08599V11.5829C9.61406 11.736 9.48281 11.8563 9.32968 11.8563ZM5.02031 11.8563C4.86718 11.8563 4.74687 11.736 4.74687 11.5829V5.08599C4.74687 4.93286 4.86718 4.81255 5.02031 4.81255C5.17343 4.81255 5.29374 4.93286 5.29374 5.08599V11.5829C5.30468 11.736 5.17343 11.8563 5.02031 11.8563ZM7.17499 11.8563C7.02187 11.8563 6.90156 11.736 6.90156 11.5829V5.08599C6.90156 4.93286 7.02187 4.81255 7.17499 4.81255C7.32812 4.81255 7.44843 4.93286 7.44843 5.08599V11.5829C7.45937 11.736 7.32812 11.8563 7.17499 11.8563ZM8.95781 2.92036V2.25317C8.95781 2.01255 8.76093 1.81567 8.52031 1.81567H5.72031C5.46874 1.81567 5.28281 2.01255 5.28281 2.26411V2.8438H4.73593V2.26411C4.73593 1.71724 5.18437 1.2688 5.73124 1.2688H8.53124C9.07812 1.2688 9.52656 1.71724 9.52656 2.26411V2.9313H8.95781V2.92036Z" fill="black"/>
</svg>
