<svg width="14" height="14" viewBox="0 0 14 14" fill="none" xmlns="http://www.w3.org/2000/svg">
<path d="M7.00001 3.79158C6.19372 3.79158 5.54167 4.44363 5.54167 5.24991C5.54167 5.411 5.41109 5.54158 5.25001 5.54158C5.08892 5.54158 4.95834 5.411 4.95834 5.24991C4.95834 4.12146 5.87156 3.20825 7.00001 3.20825C8.12845 3.20825 9.04167 4.12148 9.04167 5.24991C9.04167 6.27932 8.2817 7.12965 7.29167 7.27093V8.74991C7.29167 8.91097 7.16106 9.04158 7.00001 9.04158C6.83895 9.04158 6.70834 8.91097 6.70834 8.74991V6.99991C6.70834 6.83886 6.83895 6.70825 7.00001 6.70825C7.80629 6.70825 8.45834 6.0562 8.45834 5.24991C8.45834 4.44363 7.80629 3.79158 7.00001 3.79158ZM7.00001 10.7158C7.32218 10.7158 7.58334 10.4546 7.58334 10.1324C7.58334 9.81024 7.32218 9.54908 7.00001 9.54908C6.67783 9.54908 6.41667 9.81024 6.41667 10.1324C6.41667 10.4546 6.67783 10.7158 7.00001 10.7158Z" fill="black"/>
<path d="M6.99999 1.16675C3.77833 1.16675 1.16666 3.77842 1.16666 7.00009C1.16666 10.2217 3.77833 12.8334 6.99999 12.8334C10.2216 12.8334 12.8333 10.2217 12.8333 7.00009C12.8333 3.77842 10.2216 1.16675 6.99999 1.16675ZM1.74999 7.00009C1.74999 4.1006 4.1005 1.75009 6.99999 1.75009C9.89951 1.75009 12.25 4.1006 12.25 7.00009C12.25 9.8996 9.89951 12.2501 6.99999 12.2501C4.1005 12.2501 1.74999 9.8996 1.74999 7.00009Z" fill="black"/>
</svg>
