<svg width="18" height="18" viewBox="0 0 18 18" fill="none" xmlns="http://www.w3.org/2000/svg">
<path d="M5.54723 17.1081C5.54723 17.5722 5.92331 17.9481 6.38725 17.9481C6.85116 17.9481 7.22725 17.5722 7.22725 17.1081H5.54723ZM10.7754 17.1081C10.7754 17.5722 11.1515 17.9481 11.6154 17.9481C12.0793 17.9481 12.4554 17.5722 12.4554 17.1081H10.7754ZM6.38725 17.9481C6.85116 17.9481 7.22725 17.5722 7.22725 17.1081C7.22725 16.6442 6.85116 16.2681 6.38725 16.2681V17.9481ZM3.77315 17.1081L3.76459 17.9481H3.77315V17.1081ZM1.49731 15.1515L0.657891 15.1826C0.659167 15.2172 0.662595 15.2517 0.668139 15.286L1.49731 15.1515ZM1.19603 7.02148L2.03546 6.99037C2.03404 6.95196 2.02997 6.91368 2.02331 6.87582L1.19603 7.02148ZM2.44147 4.49924L2.05957 3.75105L2.05417 3.75385L2.44147 4.49924ZM7.96869 1.67796L8.35061 2.42613L8.35229 2.42525L7.96869 1.67796ZM10.0351 1.67796L9.65149 2.42525L9.65317 2.42613L10.0351 1.67796ZM15.5623 4.49924L15.9496 3.75384L15.9442 3.75107L15.5623 4.49924ZM16.8077 7.02148L15.9804 6.87582C15.9738 6.91365 15.9697 6.95188 15.9683 6.99026L16.8077 7.02148ZM16.5053 15.1515L17.3345 15.286C17.3401 15.2519 17.3434 15.2174 17.3448 15.1828L16.5053 15.1515ZM14.2295 17.1081V17.9483L14.238 17.9481L14.2295 17.1081ZM11.6154 16.2681C11.1515 16.2681 10.7754 16.6442 10.7754 17.1081C10.7754 17.5722 11.1515 17.9481 11.6154 17.9481V16.2681ZM6.38725 16.2681C5.92331 16.2681 5.54723 16.6442 5.54723 17.1081C5.54723 17.5722 5.92331 17.9481 6.38725 17.9481V16.2681ZM11.6154 17.9481C12.0793 17.9481 12.4554 17.5722 12.4554 17.1081C12.4554 16.6442 12.0793 16.2681 11.6154 16.2681V17.9481ZM7.22725 17.1081V14.4952H5.54723V17.1081H7.22725ZM7.22725 14.4952C7.22725 13.5154 8.02155 12.7211 9.00133 12.7211V11.0411C7.09363 11.0411 5.54723 12.5876 5.54723 14.4952H7.22725ZM9.00133 12.7211C9.98111 12.7211 10.7754 13.5154 10.7754 14.4952H12.4554C12.4554 12.5876 10.9089 11.0411 9.00133 11.0411V12.7211ZM10.7754 14.4952V17.1081H12.4554V14.4952H10.7754ZM6.38725 16.2681H3.77315V17.9481H6.38725V16.2681ZM3.78171 16.2683C3.05682 16.2609 2.44251 15.7327 2.32649 15.0171L0.668139 15.286C0.915009 16.8087 2.22216 17.9325 3.76459 17.9481L3.78171 16.2683ZM2.33674 15.1205L2.03546 6.99037L0.356611 7.05256L0.657891 15.1826L2.33674 15.1205ZM2.02331 6.87582C1.90688 6.21455 2.23296 5.5542 2.82876 5.24462L2.05417 3.75385C0.807444 4.40164 0.125141 5.78343 0.368752 7.16714L2.02331 6.87582ZM2.82337 5.24741L8.35061 2.42613L7.58677 0.92979L2.05957 3.75105L2.82337 5.24741ZM8.35229 2.42525C8.76008 2.21593 9.2437 2.21593 9.65149 2.42525L10.4187 0.930674C9.5293 0.474118 8.47448 0.474118 7.58509 0.930674L8.35229 2.42525ZM9.65317 2.42613L15.1804 5.24741L15.9442 3.75107L10.417 0.92979L9.65317 2.42613ZM15.175 5.24462C15.7708 5.5542 16.0969 6.21455 15.9804 6.87582L17.635 7.16714C17.8786 5.78343 17.1963 4.40163 15.9496 3.75384L15.175 5.24462ZM15.9683 6.99026L15.6659 15.1204L17.3448 15.1828L17.6472 7.05267L15.9683 6.99026ZM15.6762 15.0171C15.5602 15.7327 14.9458 16.2609 14.2209 16.2683L14.238 17.9481C15.7805 17.9325 17.0876 16.8087 17.3345 15.286L15.6762 15.0171ZM14.2295 16.2681H11.6154V17.9481L14.2295 17.9483V16.2681ZM6.38725 17.9481H11.6154V16.2681H6.38725V17.9481Z" fill="#EFF0F4"/>
</svg>
