<svg width="19" height="19" viewBox="0 0 19 19" fill="none" xmlns="http://www.w3.org/2000/svg">
<path d="M12.35 3.8C13.8678 3.8 15.1085 4.98647 15.1952 6.48254L15.2 6.65V16.15C15.2 17.6678 14.0135 18.9085 12.5175 18.9952L12.35 19H2.85C1.3322 19 0.0915221 17.8135 0.00483799 16.3175L0 16.15V6.65C0 5.1322 1.18647 3.89152 2.68254 3.80484L2.85 3.8H12.35ZM13.3 12.1239L10.2298 15.8082C9.89773 16.2067 9.31448 16.2605 8.91658 15.9499L8.82825 15.8718L6.65 13.6943L3.2433 17.1H12.35C12.8372 17.1 13.2387 16.7333 13.2936 16.2608L13.3 16.15V12.1239ZM16.15 0C17.6678 0 18.9085 1.18647 18.9952 2.68254L19 2.85V15.2C19 15.7247 18.5747 16.15 18.05 16.15C17.5628 16.15 17.1613 15.7833 17.1064 15.3108L17.1 15.2V2.85C17.1 2.36281 16.7333 1.96127 16.2608 1.90639L16.15 1.9H3.8C3.27533 1.9 2.85 1.47467 2.85 0.95C2.85 0.462806 3.21674 0.0612682 3.68921 0.00639131L3.8 0H16.15ZM12.35 5.7H2.85C2.36281 5.7 1.96127 6.06674 1.90639 6.53921L1.9 6.65V15.7548L5.97825 11.6782C6.32071 11.3358 6.85958 11.3094 7.23225 11.5992L7.32175 11.6782L9.4354 13.7912L13.3 9.1542V6.65C13.3 6.16281 12.9333 5.76127 12.4608 5.70639L12.35 5.7ZM4.275 6.65C5.06201 6.65 5.7 7.28799 5.7 8.075C5.7 8.86201 5.06201 9.5 4.275 9.5C3.48799 9.5 2.85 8.86201 2.85 8.075C2.85 7.28799 3.48799 6.65 4.275 6.65Z" fill="white"/>
</svg>
