<svg width="12" height="12" viewBox="0 0 12 12" fill="none" xmlns="http://www.w3.org/2000/svg">
<path d="M3.14319 8.64092C2.9714 8.47099 2.69439 8.47251 2.52448 8.6443C2.35457 8.81609 2.35609 9.09312 2.52788 9.26299L3.14319 8.64092ZM6.33856 5.03644C6.05383 4.75166 6.05383 4.28999 6.33856 4.00524L5.71988 3.38652C5.09338 4.01298 5.09338 5.02868 5.71988 5.65513L6.33856 5.03644ZM7.36978 5.03644C7.08499 5.32117 6.62334 5.32117 6.33856 5.03644L5.71988 5.65513C6.34632 6.28163 7.36202 6.28163 7.98846 5.65513L7.36978 5.03644ZM7.36978 4.00524C7.6545 4.28999 7.6545 4.75166 7.36978 5.03644L7.98846 5.65513C8.61496 5.02868 8.61496 4.01298 7.98846 3.38652L7.36978 4.00524ZM7.98846 3.38652C7.36202 2.76005 6.34632 2.76005 5.71988 3.38652L6.33856 4.00524C6.62334 3.72048 7.08499 3.72048 7.36978 4.00524L7.98846 3.38652ZM9.44813 1.92689C10.8506 3.32941 10.8506 5.60333 9.44813 7.00589L10.0668 7.62458C11.811 5.88035 11.811 3.0524 10.0668 1.30817L9.44813 1.92689ZM10.0668 1.30817C8.32259 -0.436058 5.49465 -0.436058 3.75042 1.30817L4.36913 1.92689C5.77168 0.524371 8.04557 0.524371 9.44813 1.92689L10.0668 1.30817ZM2.5464 5.768L0.381012 7.93339L0.999731 8.55214L3.16512 6.38674L2.5464 5.768ZM3.4416 10.994L4.16517 10.2704L3.54645 9.65172L2.82289 10.3753L3.4416 10.994ZM4.16517 10.2704L5.60718 8.82846L4.98844 8.20972L3.54645 9.65172L4.16517 10.2704ZM0.00796484 8.99687L0.143339 10.2152L1.01298 10.1186L0.87761 8.90027L0.00796484 8.99687ZM1.15978 11.2317L2.37812 11.3671L2.47475 10.4974L1.25641 10.362L1.15978 11.2317ZM0.433857 10.8197L0.555312 10.9411L1.17404 10.3224L1.05257 10.201L0.433857 10.8197ZM1.25641 10.362C1.22525 10.3585 1.1962 10.3446 1.17404 10.3224L0.555312 10.9411C0.717975 11.1038 0.931154 11.2062 1.15978 11.2317L1.25641 10.362ZM0.143339 10.2152C0.168737 10.4438 0.271194 10.657 0.433857 10.8197L1.05257 10.201C1.03041 10.1788 1.01645 10.1498 1.01298 10.1186L0.143339 10.2152ZM2.82289 10.3753C2.73141 10.4668 2.60332 10.5117 2.47475 10.4974L2.37812 11.3671C2.77088 11.4107 3.16218 11.2734 3.4416 10.994L2.82289 10.3753ZM0.381012 7.93339C0.101584 8.21281 -0.0356743 8.60411 0.00796484 8.99687L0.87761 8.90027C0.86333 8.7717 0.908258 8.6436 0.999731 8.55214L0.381012 7.93339ZM3.43044 5.36352C3.12466 4.17276 3.43824 2.85779 4.36913 1.92689L3.75042 1.30817C2.59187 2.46671 2.2034 4.10317 2.58294 5.58116L3.43044 5.36352ZM9.44813 7.00589C8.51719 7.93678 7.20224 8.25032 6.01148 7.94459L5.79384 8.79206C7.27183 9.17163 8.90832 8.78313 10.0668 7.62458L9.44813 7.00589ZM5.60718 8.82846C5.63973 8.79591 5.7064 8.7696 5.79384 8.79206L6.01148 7.94459C5.66854 7.85651 5.27013 7.92803 4.98844 8.20972L5.60718 8.82846ZM3.16512 6.38674C3.44667 6.10517 3.51856 5.70669 3.43044 5.36352L2.58294 5.58116C2.60534 5.66837 2.57908 5.73533 2.5464 5.768L3.16512 6.38674ZM4.16346 9.65003L3.14319 8.64092L2.52788 9.26299L3.54816 10.2721L4.16346 9.65003Z" fill="#3B3B3B"/>
</svg>
