<svg width="21" height="19" viewBox="0 0 21 19" fill="none" xmlns="http://www.w3.org/2000/svg">
<path d="M1.0022 18.7172H20V11.9913" stroke="black" stroke-width="0.5" stroke-linecap="round" stroke-linejoin="round"/>
<path d="M1.99316 16.8878L9.69032 9.19071L12.3133 11.8138L19.9999 4.12732V9.80472" stroke="black" stroke-width="0.5" stroke-linecap="round" stroke-linejoin="round"/>
<path d="M14.2788 4.12732H20" stroke="black" stroke-width="0.5" stroke-linecap="round" stroke-linejoin="round"/>
<path d="M6.62225 3.90283H2.11992C1.50141 3.90283 1 4.40424 1 5.02275V8.6155C1 9.23401 1.50141 9.73542 2.11992 9.73542H6.62225C7.24077 9.73542 7.74217 9.23401 7.74217 8.6155V5.02275C7.74217 4.40424 7.24077 3.90283 6.62225 3.90283Z" stroke="black" stroke-width="0.5" stroke-linecap="round" stroke-linejoin="round"/>
<path d="M2.57251 5.84705H7.7421" stroke="black" stroke-width="0.5" stroke-linecap="round" stroke-linejoin="round"/>
<path d="M1 7.79126H6.16959" stroke="black" stroke-width="0.5" stroke-linecap="round" stroke-linejoin="round"/>
<path d="M4.3666 2.88993C4.88849 2.88993 5.31156 2.46686 5.31156 1.94497C5.31156 1.42308 4.88849 1 4.3666 1C3.84471 1 3.42163 1.42308 3.42163 1.94497C3.42163 2.46686 3.84471 2.88993 4.3666 2.88993Z" stroke="black" stroke-width="0.5" stroke-linecap="round" stroke-linejoin="round"/>
</svg>
