<svg width="14" height="14" viewBox="0 0 14 14" fill="none" xmlns="http://www.w3.org/2000/svg">
<g clip-path="url(#clip0_1_7927)">
<path d="M13.7766 4.31919H11.2446V0.223398C11.2446 0.100023 11.1446 0 11.0212 0H2.97866C2.85529 0 2.75527 0.100023 2.75527 0.223398V4.31916H0.223398C0.100023 4.31916 0 4.41919 0 4.54256V13.7766C0 13.9 0.100023 14 0.223398 14H13.7766C13.9 14 14 13.9 14 13.7766V4.54259C14 4.41921 13.9 4.31919 13.7766 4.31919ZM3.20206 0.446797H10.7978V6.9466L8.54585 8.99232C8.54517 8.99292 8.54451 8.99355 8.54383 8.99418L6.99986 10.3967L5.45661 8.99484C5.45557 8.99388 5.45456 8.99292 5.45352 8.99199L3.20206 6.94671V0.446797ZM13.5532 13.5532H0.446797V4.76599H2.75524V6.54084L1.35726 5.27089C1.26596 5.18793 1.12465 5.19468 1.04169 5.28601C0.958727 5.37734 0.96548 5.51863 1.05681 5.60159L4.97355 9.15961L1.05697 12.7176C0.965644 12.8005 0.958891 12.9418 1.04185 13.0331C1.08593 13.0817 1.1465 13.1063 1.20728 13.1063C1.26087 13.1063 1.31463 13.0871 1.35743 13.0483L5.30581 9.46148L6.84969 10.864C6.89229 10.9027 6.94608 10.9221 6.99992 10.9221C7.05376 10.9221 7.10754 10.9027 7.15014 10.864L8.69414 9.4614L12.6427 13.0484C12.6855 13.0873 12.7393 13.1065 12.7929 13.1065C12.8537 13.1065 12.9142 13.0818 12.9583 13.0333C13.0413 12.9419 13.0345 12.8006 12.9432 12.7177L9.02634 9.15953L12.943 5.60153C13.0343 5.51857 13.0411 5.37729 12.9581 5.28596C12.8752 5.19463 12.7339 5.18787 12.6425 5.27084L11.2446 6.54076V4.76602H13.5532V13.5532H13.5532Z" fill="black"/>
<path d="M9.23399 1.78735H4.76591C4.64253 1.78735 4.54251 1.88738 4.54251 2.01075C4.54251 2.13413 4.64253 2.23415 4.76591 2.23415H9.23399C9.35736 2.23415 9.45739 2.13413 9.45739 2.01075C9.45739 1.88738 9.35736 1.78735 9.23399 1.78735Z" fill="black"/>
<path d="M9.23399 2.97876H4.76591C4.64253 2.97876 4.54251 3.07878 4.54251 3.20216C4.54251 3.32553 4.64253 3.42556 4.76591 3.42556H9.23399C9.35736 3.42556 9.45739 3.32553 9.45739 3.20216C9.45739 3.07878 9.35736 2.97876 9.23399 2.97876Z" fill="black"/>
<path d="M6.99995 4.17017H4.76591C4.64253 4.17017 4.54251 4.27019 4.54251 4.39356C4.54251 4.51694 4.64253 4.61696 4.76591 4.61696H6.99995C7.12332 4.61696 7.22335 4.51694 7.22335 4.39356C7.22335 4.27019 7.12332 4.17017 6.99995 4.17017Z" fill="black"/>
</g>
<defs>
<clipPath id="clip0_1_7927">
<rect width="14" height="14" fill="white"/>
</clipPath>
</defs>
</svg>
