<svg width="15" height="17" viewBox="0 0 15 17" fill="none" xmlns="http://www.w3.org/2000/svg">
<path d="M9.62788 14.1357C9.62788 14.3675 9.56755 14.5969 9.45041 14.8111C9.33318 15.0252 9.16146 15.2198 8.94489 15.3837C8.72839 15.5475 8.47132 15.6776 8.18843 15.7663C7.90555 15.8549 7.6023 15.9006 7.2961 15.9006C6.98989 15.9006 6.68672 15.8549 6.40376 15.7663C6.12088 15.6776 5.86384 15.5475 5.64732 15.3837C5.43079 15.2198 5.25903 15.0252 5.14185 14.8111C5.02467 14.5969 4.96436 14.3675 4.96436 14.1357" stroke="#FFFEFE" stroke-linecap="round"/>
<path d="M12.7809 7.51312C12.8585 8.15041 13.0379 8.77327 13.314 9.35831L13.5197 9.79431C14.3045 11.4574 13.2825 13.4013 11.4482 13.7344L11.3237 13.757C8.66122 14.2407 5.93105 14.2407 3.26855 13.757C1.41927 13.4211 0.440916 11.4105 1.33579 9.78499L1.51179 9.46527C1.99234 8.59237 2.24398 7.61556 2.24398 6.62306V5.61364C2.24398 3.91475 3.2224 2.36222 4.77006 1.60533C6.11582 0.947178 7.6564 0.824799 9.0768 1.24267" stroke="#FFFEFE" stroke-linecap="round"/>
<path d="M12.0567 5.69944C13.13 5.69944 14.0001 4.84435 14.0001 3.78954C14.0001 2.73473 13.13 1.87964 12.0567 1.87964C10.9834 1.87964 10.1133 2.73473 10.1133 3.78954C10.1133 4.84435 10.9834 5.69944 12.0567 5.69944Z" stroke="#FFFEFE"/>
</svg>
