<svg width="14" height="14" viewBox="0 0 14 14" fill="none" xmlns="http://www.w3.org/2000/svg">
<path d="M7.00001 7.37331C6.79167 7.37412 6.58936 7.44333 6.42419 7.57031C6.25902 7.69729 6.14013 7.875 6.08579 8.07613C6.03144 8.27726 6.04467 8.49067 6.12342 8.68355C6.20217 8.87643 6.34209 9.03811 6.52167 9.14373V10.5H7.49001V9.14373C7.63209 9.05968 7.75 8.9403 7.83229 8.7972C7.91457 8.65409 7.95843 8.49213 7.95959 8.32706C7.95959 8.20132 7.93473 8.07682 7.88644 7.96072C7.83814 7.84463 7.76737 7.73923 7.67818 7.65058C7.589 7.56194 7.48317 7.49181 7.36678 7.44423C7.25039 7.39664 7.12574 7.37254 7.00001 7.37331Z" stroke="black" stroke-width="0.5" stroke-linecap="round" stroke-linejoin="round"/>
<path d="M10.5846 5.18286H3.4125C2.71662 5.18286 2.1525 5.74698 2.1525 6.44286V11.4274C2.1525 12.1233 2.71662 12.6874 3.4125 12.6874H10.5846C11.2805 12.6874 11.8446 12.1233 11.8446 11.4274V6.44286C11.8446 5.74698 11.2805 5.18286 10.5846 5.18286Z" stroke="black" stroke-width="0.5" stroke-linecap="round" stroke-linejoin="round"/>
<path d="M3.89375 5.18292V4.42167C3.89375 3.59706 4.22133 2.80624 4.80441 2.22315C5.38749 1.64007 6.17832 1.3125 7.00292 1.3125C7.82752 1.3125 8.61835 1.64007 9.20143 2.22315C9.78451 2.80624 10.1121 3.59706 10.1121 4.42167V5.18292" stroke="black" stroke-width="0.5" stroke-linecap="round" stroke-linejoin="round"/>
</svg>
