<svg width="19" height="19" viewBox="0 0 19 19" fill="none" xmlns="http://www.w3.org/2000/svg">
<g clip-path="url(#clip0_1_7414)">
<path d="M17.2188 14.6458H4.15625C3.68383 14.6458 3.23077 14.4582 2.89672 14.1241C2.56267 13.7901 2.375 13.337 2.375 12.8646V2.96875C2.375 2.49633 2.56267 2.04327 2.89672 1.70922C3.23077 1.37517 3.68383 1.1875 4.15625 1.1875H17.2188C17.6912 1.1875 18.1442 1.37517 18.4783 1.70922C18.8123 2.04327 19 2.49633 19 2.96875V12.8646C19 13.337 18.8123 13.7901 18.4783 14.1241C18.1442 14.4582 17.6912 14.6458 17.2188 14.6458ZM4.15625 1.58333C3.78881 1.58333 3.43643 1.7293 3.17661 1.98911C2.9168 2.24893 2.77083 2.60131 2.77083 2.96875V12.8646C2.77083 13.232 2.9168 13.5844 3.17661 13.8442C3.43643 14.104 3.78881 14.25 4.15625 14.25H17.2188C17.5862 14.25 17.9386 14.104 18.1984 13.8442C18.4582 13.5844 18.6042 13.232 18.6042 12.8646V2.96875C18.6042 2.60131 18.4582 2.24893 18.1984 1.98911C17.9386 1.7293 17.5862 1.58333 17.2188 1.58333H4.15625Z" fill="black"/>
<path d="M16.0391 11.1823H4.74989C4.69689 11.1831 4.64473 11.169 4.59928 11.1418C4.55383 11.1145 4.51688 11.0751 4.49259 11.028C4.46566 10.9839 4.45142 10.9332 4.45142 10.8815C4.45142 10.8298 4.46566 10.7792 4.49259 10.735L7.02989 7.52088C7.05679 7.48484 7.09173 7.45558 7.13193 7.43542C7.17213 7.41526 7.21648 7.40477 7.26145 7.40477C7.30642 7.40477 7.35077 7.41526 7.39097 7.43542C7.43117 7.45558 7.46611 7.48484 7.49301 7.52088L9.07634 9.27046L11.9541 5.36755C11.9826 5.33204 12.0188 5.30338 12.0599 5.28369C12.101 5.264 12.146 5.25378 12.1916 5.25378C12.2371 5.25378 12.2821 5.264 12.3232 5.28369C12.3643 5.30338 12.4005 5.33204 12.4291 5.36755L16.2884 10.7311C16.3146 10.7747 16.3284 10.8247 16.3284 10.8756C16.3284 10.9265 16.3146 10.9764 16.2884 11.02C16.2658 11.0674 16.2306 11.1077 16.1866 11.1363C16.1426 11.165 16.0915 11.1809 16.0391 11.1823ZM4.95572 10.7865H15.8332L12.1757 5.71588L9.30593 9.60296C9.27973 9.63945 9.24527 9.66923 9.20537 9.68986C9.16547 9.7105 9.12126 9.72141 9.07634 9.72171C9.03047 9.72056 8.98541 9.70932 8.94436 9.6888C8.90332 9.66828 8.86729 9.63897 8.83884 9.60296L7.25551 7.84942L4.95572 10.7865Z" fill="black"/>
<path d="M9.10425 6.33337C8.86938 6.33337 8.63979 6.26373 8.44451 6.13324C8.24923 6.00276 8.09702 5.8173 8.00714 5.60031C7.91726 5.38332 7.89375 5.14456 7.93957 4.9142C7.98539 4.68385 8.09848 4.47226 8.26456 4.30619C8.43063 4.14011 8.64223 4.02701 8.87258 3.98119C9.10293 3.93537 9.3417 3.95889 9.55869 4.04877C9.77567 4.13865 9.96113 4.29085 10.0916 4.48613C10.2221 4.68142 10.2917 4.91101 10.2917 5.14587C10.2917 5.46082 10.1666 5.76286 9.94394 5.98556C9.72124 6.20826 9.41919 6.33337 9.10425 6.33337ZM9.10425 4.35421C8.94767 4.35421 8.79461 4.40064 8.66442 4.48763C8.53423 4.57462 8.43276 4.69826 8.37284 4.84292C8.31292 4.98758 8.29725 5.14675 8.32779 5.30032C8.35834 5.45389 8.43374 5.59495 8.54446 5.70567C8.65517 5.81638 8.79623 5.89178 8.9498 5.92233C9.10337 5.95288 9.26255 5.9372 9.40721 5.87728C9.55186 5.81736 9.67551 5.71589 9.7625 5.5857C9.84948 5.45551 9.89592 5.30245 9.89592 5.14587C9.89592 4.93591 9.81251 4.73455 9.66404 4.58608C9.51557 4.43762 9.31421 4.35421 9.10425 4.35421Z" fill="black"/>
<path d="M16.6251 17.6146H1.97925C1.50683 17.6146 1.05376 17.4269 0.719714 17.0929C0.385665 16.7588 0.197998 16.3057 0.197998 15.8333V4.35417C0.197998 4.30168 0.21885 4.25133 0.255966 4.21422C0.293083 4.1771 0.343424 4.15625 0.395915 4.15625C0.448405 4.15625 0.498746 4.1771 0.535863 4.21422C0.57298 4.25133 0.593831 4.30168 0.593831 4.35417V15.8333C0.593831 16.2008 0.739794 16.5532 0.999611 16.813C1.25943 17.0728 1.61181 17.2187 1.97925 17.2187H16.6251C16.6776 17.2187 16.7279 17.2396 16.765 17.2767C16.8021 17.3138 16.823 17.3642 16.823 17.4167C16.823 17.4692 16.8021 17.5195 16.765 17.5566C16.7279 17.5937 16.6776 17.6146 16.6251 17.6146Z" fill="black"/>
</g>
<defs>
<clipPath id="clip0_1_7414">
<rect width="19" height="19" fill="white"/>
</clipPath>
</defs>
</svg>
