<svg width="12" height="12" viewBox="0 0 12 12" fill="none" xmlns="http://www.w3.org/2000/svg">
<path d="M5.16292 11.0458C5.41922 11.2878 5.69972 11.5029 6 11.6875C6.12834 11.6875 11.0167 8.04167 11.0167 3.44208C11.0167 1.86417 10.6667 0.493333 10.6025 0.493333C10.4217 0.493333 10.0833 1.24292 8.8525 1.24292C7.29209 1.24292 6.30917 0.3125 6 0.3125C5.69084 0.3125 4.70792 1.24292 3.15625 1.24292C1.91667 1.24292 1.57834 0.493333 1.40625 0.493333C1.33334 0.493333 0.983337 1.86417 0.983337 3.44208C0.983337 6.8925 3.73375 9.80625 5.16292 11.0458ZM8.84375 2.22583C9.2133 2.23058 9.58072 2.16934 9.92875 2.045C9.98123 2.50884 10.0075 2.97528 10.0075 3.44208C9.99671 4.0198 9.90942 4.59354 9.74792 5.14833L5.3525 1.70958C5.57112 1.6194 5.7794 1.50597 5.97375 1.37125C6.83976 1.90099 7.82902 2.19556 8.84375 2.22583ZM1.96625 3.43917C1.96558 3.03342 1.99189 2.62809 2.045 2.22583L9.02459 6.875L1.9925 4.00792C1.9706 3.81917 1.96183 3.62913 1.96625 3.43917ZM6 10.4713C5.27185 9.85636 4.60473 9.17264 4.00792 8.42958C3.25834 7.47292 2.35417 6.07875 2.07125 4.54167L7.37084 9.15292C6.9529 9.6312 6.49423 10.0723 6 10.4713Z" stroke="black" stroke-width="0.5" stroke-linecap="round" stroke-linejoin="round"/>
</svg>
