<svg width="14" height="14" viewBox="0 0 14 14" fill="none" xmlns="http://www.w3.org/2000/svg">
<path d="M11.4421 7.58329C11.4675 7.38985 11.4811 7.19505 11.4829 6.99996C11.4811 6.80487 11.4675 6.61006 11.4421 6.41663L12.705 5.42788C12.762 5.38431 12.801 5.32126 12.8144 5.25076C12.8279 5.18027 12.8149 5.10729 12.7779 5.04579L11.5821 2.97204C11.5474 2.90984 11.4913 2.86245 11.4241 2.83882C11.3569 2.81518 11.2835 2.81692 11.2175 2.84371L9.72708 3.44454C9.41695 3.20785 9.07781 3.01181 8.71791 2.86121L8.49333 1.27746C8.48342 1.20738 8.44837 1.14329 8.39471 1.09714C8.34105 1.05099 8.27244 1.02593 8.20166 1.02663H5.80416C5.73339 1.02593 5.66478 1.05099 5.61112 1.09714C5.55745 1.14329 5.5224 1.20738 5.5125 1.27746L5.28791 2.86121C4.92756 3.01088 4.5883 3.20698 4.27875 3.44454L2.7825 2.84371C2.71654 2.81692 2.64305 2.81518 2.5759 2.83882C2.50874 2.86245 2.45255 2.90984 2.41791 2.97204L1.22208 5.04579C1.1851 5.10729 1.17209 5.18027 1.18555 5.25076C1.199 5.32126 1.23797 5.38431 1.295 5.42788L2.555 6.41663C2.52969 6.61007 2.51605 6.80487 2.51416 6.99996C2.51595 7.19505 2.52959 7.38985 2.555 7.58329L1.295 8.57204C1.23797 8.6156 1.199 8.67866 1.18555 8.74915C1.17209 8.81965 1.1851 8.89262 1.22208 8.95413L2.41791 11.0279C2.45255 11.0901 2.50874 11.1375 2.5759 11.1611C2.64305 11.1847 2.71654 11.183 2.7825 11.1562L4.27291 10.5554C4.58304 10.7921 4.92219 10.9881 5.28208 11.1387L5.50666 12.7225C5.51657 12.7925 5.55162 12.8566 5.60528 12.9028C5.65894 12.9489 5.72756 12.974 5.79833 12.9733H8.19C8.26077 12.974 8.32938 12.9489 8.38305 12.9028C8.43671 12.8566 8.47176 12.7925 8.48166 12.7225L8.70625 11.1387C9.0666 10.989 9.40586 10.7929 9.71541 10.5554L11.2058 11.1562C11.2718 11.183 11.3453 11.1847 11.4124 11.1611C11.4796 11.1375 11.5358 11.0901 11.5704 11.0279L12.7662 8.95413C12.8032 8.89262 12.8162 8.81965 12.8028 8.74915C12.7893 8.67866 12.7504 8.6156 12.6933 8.57204L11.4421 7.58329ZM7 9.09413C6.58569 9.0947 6.18051 8.97237 5.83575 8.74261C5.49098 8.51285 5.22211 8.18599 5.06316 7.80338C4.90421 7.42078 4.86232 6.99962 4.9428 6.5932C5.02327 6.18678 5.22249 5.81336 5.51525 5.52019C5.80801 5.22703 6.18115 5.02729 6.58745 4.94625C6.99376 4.86521 7.41498 4.90651 7.79781 5.06492C8.18064 5.22334 8.50787 5.49175 8.73811 5.8362C8.96835 6.18065 9.09125 6.58565 9.09125 6.99996C9.09163 7.27483 9.03782 7.54708 8.9329 7.80114C8.82797 8.0552 8.67399 8.28608 8.47977 8.48058C8.28554 8.67508 8.05487 8.82938 7.80096 8.93466C7.54705 9.03994 7.27487 9.09413 7 9.09413Z" stroke="black" stroke-width="0.5" stroke-linecap="round" stroke-linejoin="round"/>
</svg>
