<svg width="15" height="19" viewBox="0 0 15 19" fill="none" xmlns="http://www.w3.org/2000/svg">
<path d="M7.42112 8.33834C9.44755 8.33834 11.0903 6.6956 11.0903 4.66917C11.0903 2.64274 9.44755 1 7.42112 1C5.3947 1 3.75195 2.64274 3.75195 4.66917C3.75195 6.6956 5.3947 8.33834 7.42112 8.33834Z" stroke="white"/>
<path d="M10.1729 18.0755C9.33883 18.3019 8.40586 18.4286 7.42105 18.4286C3.87481 18.4286 1 16.7858 1 14.7594C1 12.733 3.87481 11.0902 7.42105 11.0902C10.9673 11.0902 13.8421 12.733 13.8421 14.7594C13.8421 15.0761 13.7718 15.3835 13.6398 15.6767" stroke="white" stroke-linecap="round"/>
</svg>
