<svg width="18" height="16" viewBox="0 0 18 16" fill="none" xmlns="http://www.w3.org/2000/svg">
<path d="M0.523035 15.5955C0.459066 15.5955 0.411948 15.5762 0.400377 15.5674C0.333659 15.5157 0.31958 15.4398 0.31958 15.3352C0.31958 14.59 0.681594 13.9708 0.685047 13.9649L0.7103 13.9302C0.948138 13.6503 1.42467 13.3913 2.28598 13.087C2.89611 12.8714 3.32154 12.6569 3.55117 12.4497C3.7325 12.2862 3.94847 11.9579 3.95971 11.5712L3.94163 11.2766L3.90104 11.0397L3.80773 10.9648C3.6907 10.8706 3.5883 10.6624 3.53467 10.4081L3.49097 10.2024L3.28496 10.1609C3.14985 10.1338 2.97822 10.0544 2.84835 9.68092C2.78124 9.48771 2.74883 9.30918 2.74883 9.1354C2.74883 9.05295 2.77006 8.89226 2.77006 8.89226C2.77255 8.87227 2.78405 8.81518 2.80528 8.75089L2.85744 8.59173L2.75664 8.45814C2.14186 7.64546 1.83006 6.77289 1.83006 5.86472C1.83006 2.80722 5.35191 0.31958 9.68085 0.31958C14.0091 0.31958 17.5304 2.80722 17.5304 5.86472C17.5304 8.92159 14.0091 11.4086 9.68085 11.4086C8.95836 11.4086 8.21747 11.3302 7.47936 11.1757L7.11614 11.0996L7.08866 11.5786C7.09863 11.9541 7.29619 12.2811 7.48717 12.4512C7.71374 12.6565 8.13942 12.8713 8.75051 13.087C9.59968 13.3868 10.089 13.6518 10.3381 13.9467L10.3628 13.9817H10.3624C10.3615 13.9817 10.7282 14.584 10.7282 15.3351C10.7282 15.4862 10.623 15.5917 10.4723 15.5917L0.594219 15.5899L0.523035 15.5955Z" fill="white"/>
<path d="M7.41387 11.4884L7.4076 11.597C7.41508 11.8442 7.56368 12.0914 7.69975 12.2125C7.83455 12.3348 8.14415 12.5339 8.85693 12.7855C9.7757 13.11 10.2912 13.3959 10.5821 13.7404L10.6209 13.7935C10.6408 13.8253 11.0478 14.4888 11.0478 15.3352C11.0478 15.6635 10.8006 15.9113 10.4723 15.9113L0.594219 15.9095C0.561751 15.9138 0.541755 15.9151 0.523013 15.9151C0.403171 15.9151 0.284604 15.8808 0.207217 15.8221C-8.19564e-08 15.661 0 15.4245 0 15.3352C0 14.4895 0.406954 13.8072 0.410716 13.801L0.448178 13.7473C0.743979 13.3965 1.26079 13.11 2.17956 12.7855C2.8899 12.5345 3.20073 12.3354 3.33681 12.2125C3.43793 12.1213 3.6314 11.8692 3.64015 11.5621L3.62271 11.2975L3.60768 11.2138C3.43045 11.0715 3.29189 10.8044 3.22196 10.4742C2.90616 10.4105 2.6852 10.1852 2.54663 9.78569C2.46674 9.5554 2.42928 9.34257 2.42928 9.13536C2.42928 9.03923 2.45299 8.85196 2.45299 8.85196C2.45671 8.82326 2.47171 8.74208 2.50163 8.65095C1.87373 7.82083 1.5105 6.87335 1.5105 5.8647C1.5105 2.63086 5.17558 0 9.68087 0C14.1848 0 17.85 2.63086 17.85 5.8647C17.85 9.09787 14.1848 11.7281 9.68087 11.7281C8.89312 11.7281 8.13541 11.6394 7.41387 11.4884Z" fill="#27323A"/>
<path d="M5.34042 4.92094C5.41277 4.92094 5.4802 4.9247 5.54265 4.93026C5.59128 4.9247 5.65622 4.92157 5.72487 4.92157C6.68111 4.92157 7.86955 5.46274 8.34142 6.98008C8.41376 7.21535 8.45002 7.47318 8.45002 7.7472C8.45002 7.95064 8.40758 8.16852 8.36513 8.37946C8.52243 8.45002 8.57862 8.7359 8.59485 8.85383C8.61102 8.85383 8.61856 9.13283 8.61856 9.13538C8.61856 9.34381 8.57982 9.55606 8.50244 9.78571C8.45002 9.93552 8.29522 10.3799 7.83081 10.4754C7.82333 10.5148 7.80461 10.5441 7.79462 10.5822C8.39881 10.6945 9.0255 10.7694 9.68089 10.7694C13.6556 10.7694 16.8913 8.56921 16.8913 5.86472C16.8913 3.15953 13.6556 0.95874 9.68089 0.95874C5.70494 0.95874 2.46924 3.15953 2.46924 5.86472C2.46924 6.27288 2.55283 6.66673 2.69269 7.04561C2.70017 7.02126 2.70265 6.99383 2.71141 6.96948C3.21946 5.45897 4.40291 4.92094 5.34042 4.92094Z" fill="white"/>
<path d="M4.12073 14.9663C3.69378 14.5156 3.39416 13.9376 3.28307 13.3484C3.05086 13.4632 2.78625 13.5738 2.4941 13.6767C2.23198 13.7685 1.44929 14.045 1.18961 14.3396C1.15841 14.4014 1.05232 14.6504 0.993652 14.9663H4.12073Z" fill="#79CCBF"/>
<path d="M4.17569 13.6293C4.37295 13.4109 4.59637 13.2355 4.83984 13.1082L4.96589 13.0426L4.85852 12.9502C4.66384 12.7854 4.49651 12.6288 4.35544 12.4815L4.27184 12.3928L4.2057 12.4964C4.13449 12.6081 4.0509 12.7118 3.94729 12.8154C3.92854 12.8414 3.90853 12.8664 3.88735 12.8903L3.85864 12.9227L3.86364 12.9658C3.89137 13.1811 3.94201 13.3929 4.01467 13.5975L4.06837 13.7485L4.17569 13.6293ZM6.67483 14.2678L6.63489 14.2105C6.20052 13.5912 5.6862 13.4527 5.50269 13.4246C5.35538 13.4527 4.83984 13.5919 4.40662 14.2117L4.36668 14.2691L4.40911 14.3253C4.70625 14.711 5.0845 14.9956 5.39532 15.0687L5.40657 15.0712L5.6812 15.0655C5.9708 14.9925 6.34406 14.7016 6.63238 14.3234L6.67483 14.2678ZM6.86588 13.628L6.97319 13.7473L7.02688 13.5962C7.10805 13.3703 7.15299 13.1406 7.16296 12.914C7.16296 12.914 7.06434 12.7785 7.05436 12.7661C6.98073 12.6912 6.90704 12.5963 6.84087 12.4921L6.77593 12.3872L6.69105 12.4765C6.54998 12.625 6.38022 12.7842 6.18427 12.9502L6.07562 13.0426L6.20173 13.1082C6.44641 13.2355 6.66984 13.4102 6.86588 13.628Z" fill="white"/>
<path d="M6.90942 14.9663H10.054C9.98035 14.5812 9.83309 14.3197 9.8318 14.3166C9.59211 14.0488 8.80066 13.7686 8.54103 13.6768C8.24767 13.5725 7.98176 13.4614 7.74828 13.3459C7.63723 13.9365 7.33637 14.5157 6.90942 14.9663Z" fill="#79CCBF"/>
<path d="M7.69855 9.54349C7.76349 9.34255 7.79967 9.12972 7.761 8.90812C7.74349 8.80011 7.70854 8.73209 7.64985 8.67655C7.6099 8.65717 7.52501 8.68339 7.52132 8.6297C7.63988 8.16286 7.67732 7.68101 7.55251 7.26653C7.02822 5.51449 5.49272 5.70739 5.49272 5.70739C5.49272 5.70739 3.986 5.50638 3.41299 7.26653C3.2794 7.67788 3.3244 8.16286 3.44546 8.6297C3.44297 8.68339 3.35681 8.65717 3.31814 8.67655C3.25696 8.73209 3.22328 8.80009 3.20456 8.90812C3.16582 9.12972 3.2008 9.34255 3.26943 9.54349C3.37183 9.84748 3.48419 9.9748 3.82997 9.86998C3.82997 10.657 4.13332 10.7288 4.19947 10.7994C4.39542 11.0116 4.56148 11.5271 4.56148 11.7755C4.65262 11.8767 4.91102 12.1875 5.51523 12.6706C6.07071 12.2274 6.32663 11.9353 6.44526 11.7755H6.44775C6.44775 11.7743 6.44896 11.7731 6.44896 11.7718C6.4602 11.7556 6.47771 11.7344 6.48769 11.7206C6.47267 11.71 6.4677 11.6669 6.46519 11.6201C6.50393 11.3411 6.62874 10.9853 6.76733 10.7994C6.81348 10.7357 7.13554 10.6683 7.13554 9.86996C7.4826 9.9748 7.59494 9.84748 7.69855 9.54349Z" fill="#F4CE73"/>
<path d="M14.0938 8.60349C14.0938 9.04419 13.7355 9.40242 13.2949 9.40242C12.8542 9.40242 12.4959 9.04419 12.4959 8.60349C12.4959 8.16286 12.8542 7.80456 13.2949 7.80456C13.7355 7.80456 14.0938 8.16288 14.0938 8.60349ZM10.2414 6.37774H14.7154C14.8915 6.37774 15.035 6.23539 15.035 6.05816C15.035 5.88213 14.8915 5.73858 14.7154 5.73858H10.2414C10.0642 5.73858 9.92309 5.88213 9.92309 6.05816C9.92309 6.23539 10.0642 6.37774 10.2414 6.37774ZM14.487 7.4825C14.487 7.83576 14.7729 8.12164 15.1261 8.12164C15.4782 8.12164 15.7653 7.83573 15.7653 7.4825C15.7653 7.12924 15.4782 6.84334 15.1261 6.84334C14.7729 6.84336 14.487 7.12924 14.487 7.4825ZM10.8019 8.21906C10.2738 8.21906 9.8444 8.64973 9.8444 9.17899C9.8444 9.70706 10.2738 10.1365 10.8019 10.1365C11.3299 10.1365 11.7606 9.70706 11.7606 9.17899C11.7606 8.64971 11.3299 8.21906 10.8019 8.21906ZM10.2414 4.98457H14.7154C14.8915 4.98457 15.035 4.84101 15.035 4.66499C15.035 4.48775 14.8915 4.34541 14.7154 4.34541H10.2414C10.0642 4.34541 9.92309 4.48775 9.92309 4.66499C9.92309 4.84103 10.0642 4.98457 10.2414 4.98457ZM5.62378 3.59021H14.7154C14.8915 3.59021 15.035 3.44786 15.035 3.27063C15.035 3.09461 14.8915 2.95105 14.7154 2.95105H5.62378C5.44776 2.95105 5.3042 3.09461 5.3042 3.27063C5.30422 3.44786 5.44776 3.59021 5.62378 3.59021Z" fill="#27323A"/>
</svg>
