<svg width="7" height="7" viewBox="0 0 7 7" fill="none" xmlns="http://www.w3.org/2000/svg">
<path d="M7 5.40909C7 4.53046 6.28773 3.81818 5.40909 3.81818C4.53046 3.81818 3.81818 4.53046 3.81818 5.40909C3.81818 6.28773 4.53046 7 5.40909 7C6.28773 7 7 6.28773 7 5.40909ZM4.93182 6.68182C4.4925 6.68182 4.13636 6.32568 4.13636 5.88636C4.13636 5.44705 4.4925 5.09091 4.93182 5.09091H5.40909C5.58482 5.09091 5.72727 5.23336 5.72727 5.40909C5.72727 5.58482 5.58482 5.72727 5.40909 5.72727H5.25C5.16214 5.72727 5.09091 5.7985 5.09091 5.88636C5.09091 5.97423 5.16214 6.04545 5.25 6.04545H5.40909C5.58482 6.04545 5.72727 6.18791 5.72727 6.36364C5.72727 6.53936 5.58482 6.68182 5.40909 6.68182H4.93182ZM6.68182 6.36364C6.68182 6.53936 6.53936 6.68182 6.36364 6.68182C6.18791 6.68182 6.04545 6.53936 6.04545 6.36364V5.40909C6.04545 5.23336 6.18791 5.09091 6.36364 5.09091C6.53936 5.09091 6.68182 5.23336 6.68182 5.40909V6.36364ZM6.68182 4.45455C6.68182 4.63027 6.53936 4.77273 6.36364 4.77273H4.45455C4.27882 4.77273 4.13636 4.63027 4.13636 4.45455C4.13636 4.27882 4.27882 4.13636 4.45455 4.13636H6.36364C6.53936 4.13636 6.68182 4.27882 6.68182 4.45455ZM3.18182 1.59091C3.18182 0.712274 2.46954 0 1.59091 0C0.712274 0 0 0.712274 0 1.59091C0 2.46954 0.712274 3.18182 1.59091 3.18182C2.46954 3.18182 3.18182 2.46954 3.18182 1.59091ZM3.01921 2.2225C3.01781 2.24007 3.00243 2.25318 2.98486 2.25177C2.94255 2.24859 2.90468 2.23936 2.86364 2.23395C2.86364 2.58172 2.58172 2.86364 2.23395 2.86364H1.57691C1.58622 2.89646 1.5632 2.92727 1.52908 2.92727H1.33639C1.29483 2.92727 1.25351 2.90234 1.23836 2.86364H1.18809C0.707654 2.86364 0.318182 2.47416 0.318182 1.99373C0.306805 1.98867 0.295349 1.98379 0.283818 1.97909C0.265558 1.97222 0.252466 1.95598 0.249628 1.93667L0.201409 1.60873C0.257887 1.62996 0.318182 1.58822 0.318182 1.52788V0.86411C0.318182 0.562602 0.562602 0.318182 0.864109 0.318182H0.971409C0.960119 0.273729 0.950145 0.228952 0.9415 0.183909C0.938691 0.166353 0.950678 0.149855 0.968243 0.147102L1.2193 0.107754C1.23683 0.105008 1.25323 0.117052 1.25586 0.134591C1.25809 0.147318 1.26923 0.215409 1.29595 0.318182C2.16176 0.318182 2.86364 1.02006 2.86364 1.88586V1.91355C2.912 1.92118 2.95877 1.93073 3.01 1.93486C3.02758 1.93627 3.04069 1.95165 3.03929 1.96923L3.01921 2.2225ZM3.01 1.93486C3.02758 1.93627 3.04069 1.95165 3.03929 1.96923L3.01921 2.2225C3.01781 2.24007 3.00243 2.25318 2.98486 2.25177C2.94255 2.24859 2.90468 2.23936 2.86364 2.23395C1.51423 2.05386 1.07705 0.742 0.971409 0.318182C0.960119 0.273729 0.950145 0.228952 0.9415 0.183909C0.938691 0.166353 0.950678 0.149855 0.968243 0.147102L1.2193 0.107754C1.23683 0.105008 1.25323 0.117052 1.25586 0.134591C1.25809 0.147318 1.26923 0.215409 1.29595 0.318182C1.40636 0.740727 1.78277 1.74618 2.86364 1.91355C2.912 1.92118 2.95877 1.93073 3.01 1.93486ZM1.57691 2.86364C1.58622 2.89646 1.5632 2.92727 1.52908 2.92727H1.33639C1.29483 2.92727 1.25351 2.90234 1.23836 2.86364C1.0472 2.47173 0.720198 2.1626 0.318182 1.99373C0.306805 1.98867 0.295349 1.98379 0.283818 1.97909C0.265558 1.97222 0.252466 1.95598 0.249628 1.93667L0.201409 1.60873L0.395818 1.68159C0.440364 1.69814 1.34877 2.05323 1.57691 2.86364ZM7 2.54545V1.59091C7 0.712273 6.28773 0 5.40909 0C4.53046 0 3.81818 0.712274 3.81818 1.59091C3.81818 2.46954 4.53046 3.18182 5.40909 3.18182H6.36364C6.71509 3.18182 7 2.89691 7 2.54545ZM6.52273 0.318182C6.61059 0.318182 6.68182 0.389409 6.68182 0.477273V1.59091C6.68182 1.94236 6.39691 2.22727 6.04545 2.22727H5.56818C5.48032 2.22727 5.40909 2.15605 5.40909 2.06818C5.40909 1.98032 5.48032 1.90909 5.56818 1.90909H5.72727C5.903 1.90909 6.04545 1.76664 6.04545 1.59091V1.43182C6.04545 1.34395 6.11668 1.27273 6.20455 1.27273C6.29241 1.27273 6.36364 1.2015 6.36364 1.11364V0.477273C6.36364 0.389409 6.43486 0.318182 6.52273 0.318182ZM5.56818 1.27273C5.65605 1.27273 5.72727 1.34395 5.72727 1.43182C5.72727 1.51968 5.65604 1.59091 5.56818 1.59091H4.45455C4.27882 1.59091 4.13636 1.44845 4.13636 1.27273C4.13636 1.097 4.27882 0.954545 4.45455 0.954545H4.93182C5.01968 0.954545 5.09091 1.02577 5.09091 1.11364C5.09091 1.2015 5.16214 1.27273 5.25 1.27273H5.56818ZM5.72727 0.318182C5.903 0.318182 6.04545 0.460637 6.04545 0.636364C6.04545 0.812091 5.903 0.954545 5.72727 0.954545C5.55155 0.954545 5.40909 0.812091 5.40909 0.636364C5.40909 0.460637 5.55155 0.318182 5.72727 0.318182ZM4.13636 0.477273C4.13636 0.389409 4.20759 0.318182 4.29545 0.318182H4.93182C5.01968 0.318182 5.09091 0.389409 5.09091 0.477273C5.09091 0.565136 5.01968 0.636364 4.93182 0.636364H4.29545C4.20759 0.636364 4.13636 0.565136 4.13636 0.477273ZM4.61364 2.86364C4.35005 2.86364 4.13636 2.64995 4.13636 2.38636C4.13636 2.12277 4.35005 1.90909 4.61364 1.90909H4.77273C4.94845 1.90909 5.09091 2.05155 5.09091 2.22727C5.09091 2.403 5.23336 2.54545 5.40909 2.54545H6.52273C6.61059 2.54545 6.68182 2.61668 6.68182 2.70455C6.68182 2.79241 6.61059 2.86364 6.52273 2.86364H4.61364ZM0 5.40909C0 6.28773 0.712274 7 1.59091 7C2.46954 7 3.18182 6.28773 3.18182 5.40909C3.18182 4.53046 2.46954 3.81818 1.59091 3.81818C0.712274 3.81818 0 4.53046 0 5.40909ZM0.590025 6.68182C0.43989 6.68182 0.318182 6.56011 0.318182 6.40998C0.318182 6.27214 0.422682 6.15907 0.554212 6.11786C0.590933 6.10635 0.627149 6.09321 0.66275 6.07847C0.711734 6.05818 0.755074 6.02573 0.785799 5.98252C0.866464 5.86908 0.915444 5.73558 0.926864 5.59586C0.966636 5.20768 1.04141 5.08836 1.45186 5.09123C1.56745 5.08659 1.68207 5.11392 1.78312 5.17023C1.98248 5.28132 2.10626 5.49531 2.29149 5.62863C2.46132 5.75087 2.59286 5.79473 2.75386 5.74382C2.81039 5.72728 2.86364 5.77222 2.86364 5.83111V6.24141C2.86364 6.48464 2.66646 6.68182 2.42323 6.68182H0.590025ZM2.17201 4.13636C2.55399 4.13636 2.86364 4.44601 2.86364 4.82799V5.17717C2.86364 5.30066 2.77675 5.40605 2.65809 5.44027C2.55282 5.47368 2.48043 5.42869 2.37348 5.32618C2.2367 5.19508 2.12248 5.03702 1.96479 4.932C1.9309 4.90943 1.89537 4.8892 1.85844 4.87149C1.82498 4.85545 1.79062 4.84161 1.75558 4.83002C1.56848 4.76811 1.36184 4.75584 1.17036 4.8025C1.12523 4.8135 1.08096 4.82841 1.03806 4.84717C0.904136 4.90573 0.788615 4.99954 0.703818 5.11859C0.61132 5.25552 0.697445 5.49067 0.567143 5.72936C0.553319 5.75469 0.532415 5.77598 0.506573 5.78881C0.408885 5.8373 0.318182 5.74247 0.318182 5.6334V5.00306C0.318182 4.5244 0.706214 4.13636 1.18488 4.13636H2.17201Z" fill="#676666"/>
</svg>
