<svg width="9" height="9" viewBox="0 0 9 9" fill="none" xmlns="http://www.w3.org/2000/svg">
<g clip-path="url(#clip0_1_6887)">
<path d="M5.87602 8.40754L6.77227 7.50004C6.842 7.43039 6.89732 7.34767 6.93506 7.25662C6.97281 7.16557 6.99223 7.06798 6.99223 6.96942C6.99223 6.87086 6.97281 6.77326 6.93506 6.68221C6.89732 6.59116 6.842 6.50845 6.77227 6.43879L6.26227 5.94004C6.19262 5.87031 6.1099 5.81499 6.01885 5.77725C5.9278 5.7395 5.83021 5.72008 5.73164 5.72008C5.63308 5.72008 5.53549 5.7395 5.44444 5.77725C5.35339 5.81499 5.27067 5.87031 5.20102 5.94004L4.86352 6.27754C3.9947 5.75672 3.26713 5.03044 2.74477 4.16254L3.08227 3.82504C3.152 3.75539 3.20732 3.67267 3.24506 3.58162C3.28281 3.49057 3.30223 3.39298 3.30223 3.29442C3.30223 3.19586 3.28281 3.09826 3.24506 3.00721C3.20732 2.91616 3.152 2.83345 3.08227 2.76379L2.57602 2.25004C2.50611 2.17803 2.42246 2.12079 2.33003 2.0817C2.2376 2.0426 2.13826 2.02246 2.03789 2.02246C1.93753 2.02246 1.83819 2.0426 1.74576 2.0817C1.65332 2.12079 1.56968 2.17803 1.49977 2.25004L0.618519 3.15004C0.557095 3.21106 0.518679 3.29146 0.509793 3.37759C0.500907 3.46372 0.522098 3.55026 0.569769 3.62254C1.84446 5.53845 3.48761 7.1816 5.40352 8.45629C5.4758 8.50396 5.56235 8.52515 5.64847 8.51627C5.7346 8.50738 5.815 8.46897 5.87602 8.40754Z" stroke="#232222" stroke-width="0.5" stroke-linecap="round" stroke-linejoin="round"/>
<path d="M3.02246 1.16253C3.69188 0.803754 4.45844 0.66831 5.21027 0.775962C5.96211 0.883615 6.65986 1.22873 7.2017 1.76094C7.74354 2.29315 8.10112 2.9846 8.22223 3.73438C8.34335 4.48417 8.22167 5.25303 7.87496 5.92878" stroke="#232222" stroke-width="0.5" stroke-linecap="round" stroke-linejoin="round"/>
<path d="M4.875 2.13013V4.23013H6.375" stroke="#232222" stroke-width="0.5" stroke-linecap="round" stroke-linejoin="round"/>
</g>
<defs>
<clipPath id="clip0_1_6887">
<rect width="9" height="9" fill="white"/>
</clipPath>
</defs>
</svg>
