<svg width="7" height="7" viewBox="0 0 7 7" fill="none" xmlns="http://www.w3.org/2000/svg">
<path d="M6.85714 3.14286H4.28571V0.142857C4.28571 0.0639714 4.22176 0 4.14286 0H0.142857C0.0639571 0 0 0.0639714 0 0.142857V6.85714C0 6.93603 0.0639571 7 0.142857 7H3.92857C4.00747 7 4.07143 6.93603 4.07143 6.85714V6.42857H5.78571V6.85714C5.78571 6.93603 5.84967 7 5.92857 7H6.42857C6.50747 7 6.57143 6.93603 6.57143 6.85714V6.42857H6.64286C6.72176 6.42857 6.78571 6.3646 6.78571 6.28571V3.92857H6.85714C6.93604 3.92857 7 3.8646 7 3.78571V3.28571C7 3.20683 6.93604 3.14286 6.85714 3.14286ZM2 6.71429H0.285714V5.5H2V6.71429ZM2 5.21429H0.285714V0.285714H2V5.21429ZM3.28571 6.71429H2.28571V0.285714H4V3.14286H2.92857C2.84967 3.14286 2.78571 3.20683 2.78571 3.28571V3.78571C2.78571 3.8646 2.84967 3.92857 2.92857 3.92857H3.07143V6.28571C3.07143 6.3646 3.13539 6.42857 3.21429 6.42857H3.28571V6.71429ZM3.78571 6.71429H3.57143V6.42857H3.78571V6.71429ZM6.28571 6.71429H6.07143V6.42857H6.28571V6.71429ZM6.5 6.14286H3.35714V5.14286H6.5V6.14286ZM6.5 4.85714H3.35714V3.92857H6.5V4.85714ZM6.71429 3.64286H3.07143V3.42857H6.71429V3.64286Z" fill="#545454"/>
<path d="M5.14293 4.21436H4.71436V4.50007H5.14293V4.21436Z" fill="#545454"/>
<path d="M5.14293 5.42847H4.71436V5.71418H5.14293V5.42847Z" fill="#545454"/>
<path d="M2.85725 2.28564H2.57153V2.85707H2.85725V2.28564Z" fill="#545454"/>
<path d="M1.71418 2.28564H1.42847V2.85707H1.71418V2.28564Z" fill="#545454"/>
<path d="M1.35704 5.92847H0.928467V6.21418H1.35704V5.92847Z" fill="#545454"/>
</svg>
