<svg width="8" height="8" viewBox="0 0 8 8" fill="none" xmlns="http://www.w3.org/2000/svg">
<path d="M7.8421 7.5H1" stroke="#545454" stroke-width="0.2" stroke-linecap="round"/>
<path d="M1 3.7369L2.38996 2.62495M7.8421 3.7369L5.06219 1.51298C4.68735 1.21312 4.15476 1.21312 3.77991 1.51298L3.51241 1.72699" stroke="#545454" stroke-width="0.2" stroke-linecap="round"/>
<path d="M5.61841 1.85526V1.17105C5.61841 1.07658 5.69501 1 5.78946 1H6.64472C6.73918 1 6.81578 1.07658 6.81578 1.17105V2.88158" stroke="#545454" stroke-width="0.2" stroke-linecap="round"/>
<path d="M1.68433 7.49995V3.22363" stroke="#545454" stroke-width="0.2" stroke-linecap="round"/>
<path d="M7.15796 3.22363V4.59205M7.15796 7.49995V5.96047" stroke="#545454" stroke-width="0.2" stroke-linecap="round"/>
<path d="M5.44741 7.50003V5.7895C5.44741 5.30569 5.44741 5.06379 5.29712 4.91347C5.1468 4.76318 4.9049 4.76318 4.42109 4.76318C3.93729 4.76318 3.69538 4.76318 3.54508 4.91347M3.39478 7.50003V5.7895" stroke="#545454" stroke-width="0.2" stroke-linecap="round" stroke-linejoin="round"/>
<path d="M5.10524 3.22376C5.10524 3.60165 4.79892 3.90797 4.42103 3.90797C4.04314 3.90797 3.73682 3.60165 3.73682 3.22376C3.73682 2.84588 4.04314 2.53955 4.42103 2.53955C4.79892 2.53955 5.10524 2.84588 5.10524 3.22376Z" stroke="#545454" stroke-width="0.2"/>
</svg>
