<svg width="6" height="6" viewBox="0 0 6 6" fill="none" xmlns="http://www.w3.org/2000/svg">
<path d="M5.66675 0.711739C5.66675 0.396212 5.28526 0.238218 5.06215 0.461308C4.89574 0.627737 4.62909 0.629211 4.43495 0.496175C4.30852 0.40954 4.17485 0.333023 4.03512 0.267579C3.61316 0.0699539 3.14898 -0.0205359 2.68368 0.00407887C2.21839 0.0286932 1.76635 0.167704 1.36759 0.40875C0.968869 0.649796 0.635705 0.985475 0.397704 1.38604C0.159669 1.7866 0.0240941 2.23967 0.00298548 2.70513C-0.0181227 3.1706 0.0759087 3.63409 0.276721 4.05454C0.477499 4.47499 0.77893 4.83943 1.1542 5.11557C1.52951 5.39172 1.96712 5.57105 2.42828 5.63767C2.62187 5.66564 2.80148 5.53138 2.82944 5.33779C2.85741 5.1442 2.72315 4.96459 2.52956 4.93662C2.18369 4.88665 1.85549 4.75215 1.574 4.54504C1.29254 4.33793 1.06648 4.06461 0.915886 3.74927C0.765294 3.43393 0.694779 3.08631 0.710575 2.73721C0.726407 2.38811 0.828088 2.04829 1.00662 1.74789C1.18516 1.44748 1.43499 1.19571 1.73405 1.01494C2.0331 0.834139 2.37214 0.729872 2.72112 0.711421C3.07009 0.692968 3.41823 0.760827 3.73469 0.909045C3.81634 0.947285 3.89522 0.990567 3.97093 1.03855C4.13978 1.14556 4.1443 1.37917 4.00295 1.52051C3.77983 1.74364 3.93785 2.12513 4.25338 2.12513C5.03396 2.12513 5.66675 1.49232 5.66675 0.711739ZM4.25008 5.13554C4.25008 4.93994 4.09151 4.78137 3.89591 4.78137C3.70031 4.78137 3.54175 4.93994 3.54175 5.13554C3.54175 5.33114 3.70032 5.4897 3.89591 5.4897C4.09151 5.4897 4.25008 5.33114 4.25008 5.13554ZM5.22404 4.33866C5.22404 4.14306 5.06547 3.98449 4.86987 3.98449C4.67427 3.98449 4.51571 4.14306 4.51571 4.33866C4.51571 4.53426 4.67427 4.69283 4.86987 4.69283C5.06547 4.69283 5.22404 4.53426 5.22404 4.33866ZM5.66675 3.18762C5.66675 2.99202 5.50818 2.83345 5.31258 2.83345C5.11698 2.83345 4.95841 2.99202 4.95841 3.18762C4.95841 3.38322 5.11698 3.54179 5.31258 3.54179C5.50818 3.54179 5.66675 3.38322 5.66675 3.18762Z" fill="#5F5F5F" stroke="#A6A6A6" stroke-width="0.000213333"/>
</svg>
