<svg width="10" height="7" viewBox="0 0 10 7" fill="none" xmlns="http://www.w3.org/2000/svg">
<path d="M9.93727 1.80151C9.93684 1.78967 9.93375 1.77968 9.92884 1.77154C9.90711 1.73559 9.85475 1.70025 9.81367 1.69146C9.72883 1.67339 9.64093 1.69301 9.55428 1.69267C9.45299 1.69229 9.35279 1.68161 9.25327 1.66308C9.1699 1.64761 9.13314 1.77102 9.21704 1.79197C9.18624 1.7814 9.14597 1.79785 9.14345 1.84118C9.10739 2.4654 8.59511 2.96339 7.96989 2.95574C6.9748 2.94356 5.97963 2.93617 4.9846 2.91526C4.79644 2.91132 4.60766 2.90541 4.41841 2.89837C3.88486 2.87851 3.4914 2.21084 3.06588 1.88833C2.9391 1.79225 2.78415 1.71741 2.61466 1.66504C2.03597 1.48625 0.806331 0.729823 0.783675 0.12457C0.782457 0.0917013 0.764387 0.0544256 0.735733 0.0382765C0.730385 0.0352625 0.724133 0.0330012 0.716875 0.0316917C0.635884 0.0170486 0.557838 0.0426741 0.475715 0.0434289C0.381894 0.0443347 0.290336 0.0296915 0.200326 0.00342438C0.144774 -0.0127746 0.0459305 0.0326494 0.01291 0.0801687C0.00478687 0.0918586 -9.97946e-05 0.106809 1.54603e-06 0.125061C0.0107197 2.14536 -0.0186798 4.17253 0.0554417 6.19155C0.05675 6.22836 0.0827533 6.2727 0.118669 6.28086C0.119842 6.28113 0.121045 6.28136 0.122279 6.28156C0.331699 6.3153 0.550101 6.32485 0.759408 6.28541C0.795526 6.27861 0.812805 6.24877 0.814587 6.21691C0.815789 6.19542 0.818413 6.17311 0.818735 6.15159C0.822772 5.83854 0.825595 5.52421 0.828662 5.21013C0.828781 5.19792 0.842274 5.18979 0.854399 5.19122C3.54957 5.51699 6.41789 5.32078 9.11144 5.06094C9.11947 5.06014 9.12679 5.06404 9.12713 5.0721C9.14093 5.39361 9.15868 5.71393 9.18077 6.03161C9.18125 6.03849 9.18253 6.04481 9.18448 6.05059C9.19612 6.08512 9.22526 6.12368 9.26044 6.13321C9.44627 6.18348 9.64293 6.2128 9.83507 6.18823C9.88847 6.18139 9.95508 6.14019 9.96752 6.08781C9.9687 6.08284 9.96941 6.07749 9.96957 6.07177C10.0095 4.65402 9.98924 3.21881 9.93727 1.80151ZM0.439403 6.16062C0.296511 6.17178 0.181491 6.05334 0.184356 5.91005C0.22276 3.98922 0.173582 2.06274 0.16034 0.141939C0.160331 0.140674 0.161418 0.140199 0.162586 0.140685C0.390086 0.229662 0.648653 0.458142 0.639616 0.702256C0.575766 2.42705 0.600951 4.17813 0.666068 5.89993C0.671125 6.03365 0.572815 6.15021 0.439403 6.16062ZM8.51724 3.15458C8.83657 3.15427 9.09532 3.41404 9.09676 3.73337C9.09821 4.05623 8.83641 4.32071 8.5136 4.31457C6.18744 4.27032 3.8244 4.17898 1.50058 4.28585C1.14048 4.30241 0.83681 4.01609 0.83704 3.65561C0.837281 3.27802 1.16988 2.98636 1.54624 3.01682C2.63434 3.10488 3.74687 3.07952 4.83009 3.10268C6.05843 3.12902 7.28825 3.15578 8.51724 3.15458ZM0.830554 2.38962C0.82934 2.29324 0.858893 2.19683 0.931643 2.1336C1.62854 1.52785 3.62377 1.68412 3.13926 2.84254C3.13909 2.84299 3.13879 2.84332 3.1383 2.84329C2.51845 2.8173 1.89807 2.79888 1.28338 2.81748C1.04009 2.82484 0.833621 2.633 0.830554 2.38962ZM9.11144 4.88733C6.34419 5.12947 3.62237 5.03229 0.854399 5.06554C0.842428 5.06569 0.830254 5.05741 0.830362 5.04544C0.831407 4.92945 0.832091 4.81333 0.832727 4.69718C0.833536 4.54925 0.959313 4.43305 1.10693 4.44267C3.6908 4.61123 6.33117 4.5169 8.91942 4.49832C9.02493 4.49756 9.11131 4.58144 9.11387 4.68691C9.11544 4.75126 9.11716 4.81558 9.11954 4.87978C9.11971 4.88442 9.11606 4.8869 9.11144 4.88733ZM9.31557 6.03182C9.31549 6.03181 9.31544 6.03174 9.31546 6.03166C9.31546 6.03165 9.31546 6.03164 9.31546 6.03163C9.31969 4.63994 9.30682 3.23171 9.25195 1.84122C9.25093 1.81521 9.23621 1.79902 9.21794 1.79238C9.49904 1.86007 9.80924 2.14173 9.80404 2.43082C9.78391 3.54965 9.78626 4.67592 9.82431 5.79254C9.8288 5.92423 9.72914 6.03824 9.59741 6.04162C9.50369 6.04402 9.41022 6.04192 9.31557 6.03182Z" fill="#545454"/>
</svg>
