<svg width="18" height="23" viewBox="0 0 18 23" fill="none" xmlns="http://www.w3.org/2000/svg">
<path d="M3.33928 4.17812H12.2372C12.4329 4.17812 12.5916 4.01855 12.5916 3.82173C12.5916 3.62491 12.4329 3.46533 12.2372 3.46533H3.33928C3.14355 3.46533 2.98486 3.62491 2.98486 3.82173C2.98486 4.01855 3.14355 4.17812 3.33928 4.17812Z" fill="#ECF1FF"/>
<path d="M3.33928 6.2101H12.2372C12.4329 6.2101 12.5916 6.05053 12.5916 5.85371C12.5916 5.65689 12.4329 5.49731 12.2372 5.49731H3.33928C3.14355 5.49731 2.98486 5.65689 2.98486 5.85371C2.98486 6.05053 3.14355 6.2101 3.33928 6.2101Z" fill="#ECF1FF"/>
<path d="M3.33928 8.24184H12.2372C12.4329 8.24184 12.5916 8.08227 12.5916 7.88545C12.5916 7.68863 12.4329 7.52905 12.2372 7.52905H3.33928C3.14355 7.52905 2.98486 7.68863 2.98486 7.88545C2.98486 8.08227 3.14355 8.24184 3.33928 8.24184Z" fill="#ECF1FF"/>
<path d="M3.33928 10.2738H12.2372C12.4329 10.2738 12.5916 10.1142 12.5916 9.91743C12.5916 9.72061 12.4329 9.56104 12.2372 9.56104H3.33928C3.14355 9.56104 2.98486 9.72061 2.98486 9.91743C2.98486 10.1142 3.14355 10.2738 3.33928 10.2738Z" fill="#ECF1FF"/>
<path d="M3.33928 12.3056H12.2372C12.4329 12.3056 12.5916 12.146 12.5916 11.9492C12.5916 11.7523 12.4329 11.5928 12.2372 11.5928H3.33928C3.14355 11.5928 2.98486 11.7523 2.98486 11.9492C2.98486 12.146 3.14355 12.3056 3.33928 12.3056Z" fill="#ECF1FF"/>
<path d="M17.211 14.8868C17.1106 14.7807 16.9714 14.7208 16.8259 14.7208C16.8237 14.7208 16.8215 14.7208 16.8194 14.7208C16.5806 14.7208 16.3577 14.6247 16.1918 14.4502C16.0227 14.2724 15.9363 14.0394 15.9484 13.7937C15.9555 13.6475 15.9028 13.5048 15.8025 13.3987C15.7021 13.2927 15.5629 13.2327 15.4174 13.2327H15.1425V0.534592C15.1425 0.239408 14.9044 0 14.6109 0H0.965712C0.672164 0 0.434082 0.239408 0.434082 0.534592V19.3003C0.434082 19.5955 0.672164 19.8349 0.965712 19.8349H9.34296C10.0021 20.9398 10.971 22.027 12.3936 22.9191C12.4798 22.9731 12.5773 23.0001 12.6749 23.0001C12.7726 23.0001 12.8701 22.9731 12.9563 22.9191C16.5495 20.6661 17.2557 17.1685 17.3569 15.2842C17.3646 15.1372 17.3119 14.9934 17.211 14.8868ZM12.6748 21.8281C10.0038 20.012 9.27039 17.3912 9.09283 15.7069C9.4064 15.6115 9.69206 15.4355 9.92642 15.1891C10.1633 14.9401 10.3288 14.6322 10.4094 14.3018H14.9402C15.0209 14.6322 15.1864 14.94 15.4232 15.1891C15.6577 15.4355 15.9432 15.6115 16.2568 15.707C16.0791 17.3912 15.3458 20.012 12.6748 21.8281ZM1.49725 18.7657V1.06918H14.0792V13.2327H9.93236C9.78678 13.2327 9.64767 13.2927 9.54728 13.3987C9.48641 13.4631 9.44344 13.5409 9.42031 13.6249H3.33926C3.14353 13.6249 2.98484 13.7844 2.98484 13.9813C2.98484 14.1781 3.14353 14.3377 3.33926 14.3377H9.24771C9.22077 14.377 9.19144 14.4149 9.15795 14.4502C8.9919 14.6248 8.76915 14.7208 8.53036 14.7208C8.52903 14.7208 8.52761 14.7208 8.52629 14.7208C8.37947 14.7191 8.23965 14.7802 8.13873 14.8868C8.03781 14.9933 7.98509 15.1372 7.99297 15.2842C7.99935 15.4022 8.00804 15.5267 8.01973 15.6568H3.33926C3.14353 15.6568 2.98484 15.8163 2.98484 16.0132C2.98484 16.21 3.14353 16.3696 3.33926 16.3696H8.10851C8.22264 17.0899 8.43015 17.9156 8.79662 18.7657H1.49725Z" fill="#ECF1FF"/>
<path d="M12.6748 15.0728C11.4273 15.0728 10.416 16.0897 10.416 17.3441C10.416 18.5986 11.4274 19.6155 12.6748 19.6155C13.9223 19.6155 14.9336 18.5986 14.9336 17.3441C14.9336 16.0897 13.9224 15.0728 12.6748 15.0728ZM13.2383 16.6062C13.3768 16.467 13.6011 16.4671 13.7395 16.6062C13.8779 16.7454 13.8779 16.9711 13.7395 17.1103L12.6436 18.2122C12.5772 18.2791 12.487 18.3167 12.393 18.3167C12.299 18.3167 12.2088 18.2791 12.1423 18.2123L11.6101 17.6772C11.4717 17.5379 11.4717 17.3123 11.6101 17.1732C11.7486 17.034 11.973 17.034 12.1114 17.1732L12.393 17.4563L13.2383 16.6062Z" fill="#ECF1FF"/>
</svg>
