<?xml version="1.0" encoding="utf-8"?>
<!-- Generator: Adobe Illustrator 27.5.0, SVG Export Plug-In . SVG Version: 6.00 Build 0)  -->
<svg version="1.1" xmlns="http://www.w3.org/2000/svg" xmlns:xlink="http://www.w3.org/1999/xlink" x="0px" y="0px"
	 viewBox="0 0 1122 1122" style="enable-background:new 0 0 1122 1122;" xml:space="preserve">

<g id="Objects">
	<g>
		
			<rect x="205.42" y="284.166" transform="matrix(0.0767 -0.9971 0.9971 0.0767 -33.6939 1100.4847)" style="fill:#CCB7A3;" width="743.814" height="568.536"/>
		<g>
			<path style="opacity:0.09;fill:#272525;" d="M825.948,318.114l-181.13,23.001c-29.348,3.727-59.067,1.442-87.501-6.728
				l-175.485-50.421c-34.913-8.71-58.452-42.72-55.564-80.28l1.74-22.628l560.852,38.324l-1.385,28.757
				C884.586,285.7,861.782,314.843,825.948,318.114z"/>
			<path style="fill:#D3BFAF;" d="M819.937,312.853l-181.13,23.001c-29.348,3.727-59.067,1.442-87.501-6.728L375.82,278.705
				c-34.913-8.71-58.452-42.72-55.564-80.28l1.74-22.628l566.863,43.586l-1.74,22.628
				C884.232,279.571,855.771,309.582,819.937,312.853z"/>
		</g>
		<g>
			<g>
				<path style="fill:#F9DD82;" d="M588.243,468.19c-24.702-1.899-43.256-23.542-41.357-48.246l8.255-107.357
					c1.9-24.704,23.544-43.256,48.246-41.357c24.702,1.899,43.256,23.542,41.357,48.246l-8.255,107.357
					C634.589,451.537,612.944,470.089,588.243,468.19z M603.088,275.112c-22.564-1.735-42.331,15.21-44.066,37.773l-8.255,107.357
					c-1.735,22.564,15.209,42.331,37.773,44.066c22.564,1.735,42.331-15.21,44.066-37.773l8.255-107.357
					C642.596,296.613,625.652,276.846,603.088,275.112z"/>
			</g>
			<g>
				
					<ellipse transform="matrix(0.7071 -0.7071 0.7071 0.7071 -36.7518 513.1926)" style="fill:#AA7355;" cx="601.102" cy="300.96" rx="42.987" ry="42.987"/>
				
					<ellipse transform="matrix(0.3842 -0.9233 0.9233 0.3842 92.3192 740.3232)" style="fill:#BDB39B;" cx="601.102" cy="300.96" rx="22.031" ry="22.031"/>
				<path style="fill:#434244;" d="M611.323,301.745c-0.434,5.644-5.362,9.868-11.006,9.434c-5.644-0.434-9.868-5.361-9.434-11.006
					c0.434-5.644,5.361-9.868,11.006-9.434C607.533,291.173,611.756,296.101,611.323,301.745z"/>
			</g>
			<g>
				
					<ellipse transform="matrix(0.7071 -0.7071 0.7071 0.7071 -135.4289 545.4515)" style="fill:#AA7355;" cx="590.704" cy="436.203" rx="42.987" ry="42.987"/>
				
					<ellipse transform="matrix(0.9886 -0.1507 0.1507 0.9886 -59.004 94.0278)" style="fill:#BDB39B;" cx="590.704" cy="436.203" rx="22.031" ry="22.031"/>
				<path style="fill:#434244;" d="M600.924,436.989c-0.434,5.644-5.362,9.868-11.006,9.434c-5.644-0.434-9.868-5.362-9.434-11.006
					c0.434-5.644,5.362-9.868,11.006-9.434C597.134,426.417,601.358,431.344,600.924,436.989z"/>
			</g>
		</g>
		<rect x="232.73" y="160.96" style="fill:#FFFFF5;" width="532.38" height="734.318"/>
		<g>
			<g>
				<path style="fill:#BBBCBF;" d="M396.345,307.093c99.504,0,199.008,0,298.512,0c8.117,0,8.117-12.588,0-12.588
					c-99.504,0-199.008,0-298.512,0C388.228,294.505,388.228,307.093,396.345,307.093L396.345,307.093z"/>
			</g>
			<g>
				<path style="fill:#BBBCBF;" d="M302.009,381.675c130.95,0,261.899,0,392.849,0c8.117,0,8.117-12.588,0-12.588
					c-130.95,0-261.899,0-392.849,0C293.891,369.087,293.891,381.675,302.009,381.675L302.009,381.675z"/>
			</g>
			<g>
				<path style="fill:#BBBCBF;" d="M302.009,456.257c130.95,0,261.899,0,392.849,0c8.117,0,8.117-12.588,0-12.588
					c-130.95,0-261.899,0-392.849,0C293.891,443.669,293.891,456.257,302.009,456.257L302.009,456.257z"/>
			</g>
			<g>
				<path style="fill:#BBBCBF;" d="M302.009,530.839c130.95,0,261.899,0,392.849,0c8.117,0,8.117-12.588,0-12.588
					c-130.95,0-261.899,0-392.849,0C293.891,518.252,293.891,530.839,302.009,530.839L302.009,530.839z"/>
			</g>
			<g>
				<path style="fill:#BBBCBF;" d="M302.009,605.422c130.95,0,261.899,0,392.849,0c8.117,0,8.117-12.588,0-12.588
					c-130.95,0-261.899,0-392.849,0C293.891,592.834,293.891,605.422,302.009,605.422L302.009,605.422z"/>
			</g>
		</g>
		<path style="fill:#51927E;" d="M310.757,792.623c55.971,0,111.942,0,167.913,0c4.566,0,4.566-7.081,0-7.081
			c-55.971,0-111.942,0-167.913,0C306.191,785.542,306.191,792.623,310.757,792.623L310.757,792.623z"/>
		<path style="fill:#3B464C;" d="M446.192,760.57c-6.037,2.19-12.134,2.952-18.46,2.361l-0.883-2.531
			c-0.662-1.897-3.798-2.302-4.253,0c-0.145,0.731-1.638,7.168-4.075,4c-1.431-1.86-0.633-4.771-0.381-6.882
			c0.275-2.302,0.243-5.223-1.325-7.112c-1.805-2.175-6.774-4.385-9.081-1.516c-3.588,4.461,1.814,10.498-2.438,15.334
			c-2.494,2.836-6.967,1.021-9.266-1.296c3.043-5.12,2.388-10.907-0.279-16.076c-0.751-1.456-3.222-1.53-3.951,0
			c-2.174,4.563-3.368,10.718-1.466,15.578c-2.031,1.413-4.801,1.722-6.954,0.445c3.91-5.976,5.418-13.593,3.296-21.398
			c-0.584-2.147-3.236-2.205-4.396-0.574c-3.575,5.028-6.92,10.294-6.525,16.701c0.122,1.975,0.691,3.787,1.616,5.359
			c-3.48,3.936-8.406,6.602-14.107,7.157c-0.091-0.327-0.172-0.658-0.266-0.983c-0.381-1.328-0.819-2.638-1.272-3.943
			c-0.001-3.078,0.049-6.153,0.182-9.224c0.477-0.757,1.025-1.518,1.585-2.326c2.592-3.746,4.805-7.74,6.815-11.823
			c8.014-16.277,11.085-34.858,9.149-52.855c-0.225-2.094-2.317-2.962-3.959-1.64c-4.869,3.92-7.092,9.576-8.94,15.375
			c-2.421,7.6-4.266,15.383-5.768,23.212c-1.788,9.321-2.874,18.769-3.336,28.247c-0.186,0.265-0.367,0.532-0.556,0.797
			c-2.616,3.672-1.117,7.686,0.3,11.516c0.016,1.992,0.057,3.984,0.125,5.974c0.044,1.287,0.996,2.179,2.256,2.256
			c0.033,0.002,0.066,0.001,0.099,0.003c1.024,4.211,1.748,8.498,2.224,12.797c1.366,12.329,0.136,24.819-3.206,36.734
			c-4.524-2.118-5.137-25.944-5.262-29.154c-0.326-8.361,0.287-16.589,0.924-24.875c0.659-0.393,1.119-1.146,0.936-2.138
			l-0.634-3.455c-0.381-2.076-3.809-2.083-4.184,0c-1.798,9.97-1.952,20.368-1.666,30.468c0.15,5.286,0.605,10.558,1.212,15.809
			c0.493,4.258,0.782,8.823,2.458,12.8c1.954,4.638,8.708,8.537,10.691,1.928c2.74-9.132,3.894-18.741,3.944-28.253
			c0.04-7.659-0.963-15.329-2.714-22.793c6.421-0.737,12.046-3.731,16.154-8.111c0.902,0.653,1.909,1.193,3.007,1.596
			c2.909,1.07,6.552,0.103,9.285-1.789c0.485,0.479,1.007,0.938,1.612,1.345c5.508,3.71,14.255,3.173,16.495-4.162
			c1.12-3.665,0.756-7.3,0.095-11.018c0.721-0.392,1.392-0.231,2.012,0.482c1.339,1.062,0.59,4.75,0.423,6.223
			c-0.241,2.13-0.399,4.536,0.677,6.498c1.423,2.597,3.529,4.543,6.63,4.381c1.874-0.097,3.239-1.463,4.21-3.178
			c0.315,0.176,0.682,0.286,1.106,0.342c7.269,0.952,14.371,0.173,21.268-2.306C450.071,763.911,448.905,759.587,446.192,760.57z
			 M364.86,728.801c1.181-6.736,2.779-13.392,4.624-19.975c1.395-4.977,2.778-10.239,5.757-14.442
			c0.907,18.33-3.634,35.928-12.661,51.703C363.102,740.305,363.854,734.54,364.86,728.801z M382.789,748.833
			c-0.039,3.541-0.921,6.901-2.477,9.866C379.582,755.622,380.981,752.012,382.789,748.833z"/>
		<path style="fill:#3B464C;" d="M457.605,770c-2.513,0-2.513,3.896,0,3.896C460.118,773.896,460.118,770,457.605,770z"/>
	</g>
</g>
</svg>
