<svg width="25" height="24" viewBox="0 0 25 24" fill="none" xmlns="http://www.w3.org/2000/svg">
<g clip-path="url(#clip0_1_4737)">
<path d="M15.06 5.30417H18.1168L18.117 8.89029L19.6668 6.47069V4.44246C19.6668 4.31857 19.6177 4.19977 19.5306 4.11177L15.5775 0.136857C15.4904 0.0493143 15.3722 0 15.2488 0H3.02626C2.25718 0 1.63135 0.629029 1.63135 1.40246V22.5975C1.63135 23.3709 2.25712 24 3.02626 24H18.2718C19.0408 24 19.6666 23.3709 19.6666 22.5975V16.58L18.1173 18.9641L18.1175 22.4414H3.18123V1.55851H14.4843V4.7252C14.4843 5.04514 14.742 5.30417 15.06 5.30417Z" fill="#ECF1FF"/>
<path d="M21.3972 11.1499L20.7567 10.7291C20.6522 10.6604 20.5122 10.6899 20.4438 10.795L16.9952 16.1016L16.332 15.6659L19.7807 10.3592C19.849 10.254 19.8197 10.1133 19.7152 10.0446L19.0747 9.62374C18.9701 9.55505 18.83 9.58454 18.7618 9.68968L13.598 17.6356C13.5761 17.6693 13.5635 17.7084 13.5615 17.7487L13.4265 20.5063C13.4226 20.5868 13.4614 20.6636 13.5287 20.7076C13.5959 20.7517 13.6814 20.7567 13.7531 20.7208L16.2104 19.4892C16.2464 19.4713 16.2769 19.4439 16.2989 19.41L21.4626 11.4642C21.5311 11.3594 21.5017 11.2186 21.3972 11.1499Z" fill="#ECF1FF"/>
<path d="M23.5134 7.89401L21.1909 6.36784C21.0865 6.29921 20.9463 6.3287 20.878 6.43378L19.3117 8.84401C19.2435 8.94915 19.2728 9.09007 19.3773 9.15875L21.6998 10.6848C21.8042 10.7535 21.9444 10.724 22.0126 10.6189L23.5789 8.2087C23.6473 8.10355 23.6179 7.9627 23.5134 7.89401Z" fill="#ECF1FF"/>
<path d="M5.43838 4.99784H9.87083C10.1847 4.99784 10.4391 4.74195 10.4391 4.42641C10.4391 4.11087 10.1847 3.85498 9.87083 3.85498H5.43838C5.12453 3.85498 4.87012 4.11087 4.87012 4.42641C4.87012 4.74195 5.12464 4.99784 5.43838 4.99784Z" fill="#ECF1FF"/>
<path d="M13.8487 7.28359C13.8487 6.96804 13.5941 6.71216 13.2804 6.71216H5.43838C5.12453 6.71216 4.87012 6.96804 4.87012 7.28359C4.87012 7.59913 5.12453 7.85502 5.43838 7.85502H13.2804C13.5943 7.85502 13.8487 7.59913 13.8487 7.28359Z" fill="#ECF1FF"/>
<path d="M5.43838 10.7122H9.87083C10.1847 10.7122 10.4391 10.4563 10.4391 10.1408C10.4391 9.82522 10.1847 9.56934 9.87083 9.56934H5.43838C5.12453 9.56934 4.87012 9.82522 4.87012 10.1408C4.87012 10.4563 5.12464 10.7122 5.43838 10.7122Z" fill="#ECF1FF"/>
<path d="M5.43838 13.5694H9.87083C10.1847 13.5694 10.4391 13.3135 10.4391 12.9979C10.4391 12.6825 10.1847 12.4265 9.87083 12.4265H5.43838C5.12453 12.4265 4.87012 12.6825 4.87012 12.9979C4.87012 13.3135 5.12464 13.5694 5.43838 13.5694Z" fill="#ECF1FF"/>
<path d="M5.67907 20.954C5.56843 21.0978 5.768 21.3015 5.88001 21.1559C6.23307 20.6972 6.52464 20.2032 6.76814 19.6819C6.9201 19.7778 7.11961 19.7586 7.28327 19.6936C7.51916 19.6 7.71913 19.4195 7.90956 19.2562C8.02213 19.1596 8.15317 19.0001 8.30899 18.9848C8.42798 18.9734 8.58869 19.0697 8.70762 19.0902C9.01841 19.1435 9.38141 19.053 9.68146 18.9784C9.96621 18.9078 10.2997 18.7959 10.4672 18.5367C10.5674 18.3817 10.3213 18.2386 10.2219 18.3926C10.0878 18.6002 9.76016 18.6648 9.53876 18.7198C9.2789 18.7844 8.97738 18.8482 8.70956 18.8022C8.50771 18.7677 8.34445 18.645 8.13692 18.7379C7.85892 18.8625 7.64656 19.1243 7.40107 19.301C7.29123 19.3801 7.1657 19.4561 7.02829 19.4668C6.97175 19.4712 6.92567 19.4503 6.88736 19.4156C6.9176 19.3451 6.9476 19.2742 6.97618 19.2027C7.25327 18.5111 7.37857 17.8087 7.50717 17.0801C7.57252 16.7099 7.68123 16.1265 7.15354 16.0909C6.68728 16.0596 6.28432 16.7359 6.13533 17.0923C6.00207 17.411 5.98724 17.7813 5.99741 18.1216C6.00372 18.3338 6.07964 18.554 6.13561 18.7733C5.68816 18.8455 5.29379 19.2999 5.36289 19.7504C5.43091 20.1938 5.98218 19.9648 6.18806 19.8008C6.39644 19.6348 6.4639 19.4274 6.46611 19.2038C6.50765 19.2726 6.54237 19.3552 6.57829 19.4324C6.3382 19.974 6.03719 20.4887 5.67907 20.954ZM6.17709 19.3368C6.13504 19.5252 5.89791 19.7113 5.71117 19.7287C5.56428 19.7424 5.65389 19.4786 5.68293 19.4196C5.77408 19.2343 5.99991 19.1134 6.18977 19.0613C6.19863 19.1543 6.19721 19.2464 6.17709 19.3368ZM6.4144 18.7836C6.36604 18.5564 6.29893 18.3282 6.28154 18.1217C6.2479 17.7231 6.31831 17.3055 6.51487 16.9569C6.63767 16.7391 6.88799 16.4052 7.15354 16.3767C7.39067 16.3513 7.24605 16.9312 7.22554 17.0478C7.16206 17.4074 7.11677 17.7644 7.02829 18.1199C6.94612 18.4501 6.84202 18.7771 6.71751 19.0968C6.65131 18.9311 6.5651 18.8251 6.4144 18.7836Z" fill="#ECF1FF"/>
</g>
<defs>
<clipPath id="clip0_1_4737">
<rect width="23.867" height="24" fill="white" transform="translate(0.689941)"/>
</clipPath>
</defs>
</svg>
