<svg width="19" height="21" viewBox="0 0 19 21" fill="none" xmlns="http://www.w3.org/2000/svg">
<path d="M13.7042 12.3311C11.3242 12.3311 9.39307 14.2709 9.39307 16.6662C9.39307 19.0594 11.3235 21.0006 13.7042 21.0006C16.0848 21.0006 18.016 19.0608 18.016 16.6662C18.016 14.2709 16.0855 12.3311 13.7042 12.3311ZM12.7799 19.3313L10.4778 17.0171L11.3815 16.1077L12.7799 17.5139L15.8218 14.4551L16.7248 15.3638L12.7799 19.3313Z" fill="#ECF1FF"/>
<path d="M1.7503 18.9429V1.15108H10.6489V5.76075H15.2337V11.9347C15.6412 12.0672 16.0248 12.2547 16.3784 12.4831V5.28398L11.123 0H0.606934V20.094H10.1248C9.80118 19.7525 9.52549 19.3661 9.30774 18.9429H1.7503Z" fill="#ECF1FF"/>
<path d="M4.72146 9.44969C5.61368 9.44969 6.33696 8.72237 6.33696 7.82519C6.33696 6.928 5.61368 6.20068 4.72146 6.20068C3.82924 6.20068 3.10596 6.928 3.10596 7.82519C3.10596 8.72237 3.82924 9.44969 4.72146 9.44969Z" fill="#ECF1FF"/>
<path d="M13.2724 6.86084H7.78662V8.78935H13.2724V6.86084Z" fill="#ECF1FF"/>
<path d="M4.72146 13.7407C5.61368 13.7407 6.33696 13.0134 6.33696 12.1162C6.33696 11.219 5.61368 10.4917 4.72146 10.4917C3.82924 10.4917 3.10596 11.219 3.10596 12.1162C3.10596 13.0134 3.82924 13.7407 4.72146 13.7407Z" fill="#ECF1FF"/>
<path d="M13.2724 11.7103V11.1519H7.78662V13.0804H10.2798C11.0716 12.315 12.115 11.8114 13.2724 11.7103Z" fill="#ECF1FF"/>
<path d="M4.72146 17.8227C5.61368 17.8227 6.33696 17.0954 6.33696 16.1982C6.33696 15.301 5.61368 14.5737 4.72146 14.5737C3.82924 14.5737 3.10596 15.301 3.10596 16.1982C3.10596 17.0954 3.82924 17.8227 4.72146 17.8227Z" fill="#ECF1FF"/>
<path d="M7.78662 15.2346V17.1631H8.77883C8.76285 16.9991 8.75353 16.8337 8.75353 16.6663C8.75353 16.1681 8.82877 15.6893 8.96395 15.2346H7.78662Z" fill="#ECF1FF"/>
</svg>
