<svg width="18" height="15" viewBox="0 0 18 15" fill="none" xmlns="http://www.w3.org/2000/svg">
<path d="M9 3.12553L8.5947 3.5156C8.70075 3.62578 8.84707 3.68803 9 3.68803C9.15292 3.68803 9.29925 3.62578 9.4053 3.5156L9 3.12553ZM5.25046 11.3157C5.01058 11.1183 4.6561 11.1528 4.45868 11.3926C4.26127 11.6325 4.29568 11.987 4.53556 12.1844L5.25046 11.3157ZM1.75649 9.05868C1.90555 9.33123 2.24735 9.43136 2.51991 9.28226C2.79247 9.13316 2.89258 8.79138 2.74351 8.51883L1.75649 9.05868ZM2.0625 5.85288C2.0625 4.23973 2.97403 2.88695 4.21827 2.3182C5.42705 1.76567 7.05124 1.91199 8.5947 3.5156L9.4053 2.73545C7.57387 0.832695 5.44807 0.519098 3.75057 1.29503C2.08853 2.05475 0.9375 3.81883 0.9375 5.85288H2.0625ZM6.37306 13.625C6.75724 13.9278 7.16965 14.2508 7.5876 14.495C8.00542 14.7391 8.4822 14.9376 9 14.9376V13.8126C8.7678 13.8126 8.49457 13.722 8.1552 13.5237C7.81597 13.3254 7.46406 13.0525 7.06954 12.7415L6.37306 13.625ZM11.6269 13.625C12.6969 12.7815 14.0646 11.815 15.1375 10.6069C16.2296 9.37713 17.0625 7.85201 17.0625 5.85288H15.9375C15.9375 7.50093 15.2631 8.77121 14.2963 9.85991C13.3102 10.9703 12.0672 11.8454 10.9305 12.7415L11.6269 13.625ZM17.0625 5.85288C17.0625 3.81883 15.9115 2.05475 14.2494 1.29503C12.5519 0.519098 10.4261 0.832695 8.5947 2.73545L9.4053 3.5156C10.9487 1.91199 12.5729 1.76567 13.7817 2.3182C15.0259 2.88695 15.9375 4.23973 15.9375 5.85288H17.0625ZM10.9305 12.7415C10.5359 13.0525 10.184 13.3254 9.8448 13.5237C9.50542 13.722 9.2322 13.8126 9 13.8126V14.9376C9.5178 14.9376 9.99457 14.7391 10.4124 14.495C10.8304 14.2508 11.2427 13.9278 11.6269 13.625L10.9305 12.7415ZM7.06954 12.7415C6.4726 12.2709 5.86597 11.8223 5.25046 11.3157L4.53556 12.1844C5.15826 12.6969 5.81604 13.1859 6.37306 13.625L7.06954 12.7415ZM2.74351 8.51883C2.3226 7.74926 2.0625 6.87753 2.0625 5.85288H0.9375C0.9375 7.08101 1.25246 8.13708 1.75649 9.05868L2.74351 8.51883Z" fill="white"/>
</svg>
