<svg width="17" height="17" viewBox="0 0 17 17" fill="none" xmlns="http://www.w3.org/2000/svg">
<path d="M7.62867 12.9624C6.57376 12.9624 5.54253 12.6496 4.6654 12.0635C3.78827 11.4774 3.10463 10.6444 2.70093 9.66981C2.29723 8.6952 2.19161 7.62276 2.39741 6.58811C2.60321 5.55346 3.11121 4.60308 3.85714 3.85714C4.60308 3.11121 5.55346 2.60321 6.58811 2.39741C7.62276 2.19161 8.6952 2.29723 9.66981 2.70093C10.6444 3.10463 11.4774 3.78827 12.0635 4.6654C12.6496 5.54253 12.9624 6.57376 12.9624 7.62867C12.9624 8.32911 12.8245 9.02269 12.5564 9.66981C12.2884 10.3169 11.8955 10.9049 11.4002 11.4002C10.9049 11.8955 10.3169 12.2884 9.66981 12.5564C9.02269 12.8245 8.32911 12.9624 7.62867 12.9624ZM7.62867 3.36451C6.7881 3.36451 5.96641 3.61377 5.2675 4.08076C4.56859 4.54776 4.02386 5.21152 3.70219 5.9881C3.38051 6.76469 3.29635 7.61922 3.46034 8.44364C3.62432 9.26806 4.0291 10.0253 4.62347 10.6197C5.21784 11.2141 5.97512 11.6189 6.79954 11.7828C7.62396 11.9468 8.47849 11.8627 9.25508 11.541C10.0317 11.2193 10.6954 10.6746 11.1624 9.97568C11.6294 9.27677 11.8787 8.45508 11.8787 7.61451C11.8787 6.48734 11.4309 5.40633 10.6339 4.6093C9.83685 3.81227 8.75584 3.36451 7.62867 3.36451Z" fill="#24346E"/>
<path d="M14.1666 14.6978C14.0968 14.6981 14.0276 14.6845 13.9631 14.6578C13.8987 14.631 13.8402 14.5916 13.7911 14.542L10.8657 11.6166C10.7719 11.5159 10.7208 11.3827 10.7232 11.245C10.7257 11.1074 10.7814 10.9761 10.8787 10.8787C10.9761 10.7814 11.1074 10.7257 11.245 10.7232C11.3827 10.7208 11.5159 10.7719 11.6166 10.8657L14.542 13.7911C14.6415 13.8908 14.6973 14.0258 14.6973 14.1666C14.6973 14.3073 14.6415 14.4424 14.542 14.542C14.4929 14.5916 14.4345 14.631 14.37 14.6578C14.3055 14.6845 14.2364 14.6981 14.1666 14.6978Z" fill="#24346E"/>
</svg>
