<svg width="14" height="14" viewBox="0 0 14 14" fill="none" xmlns="http://www.w3.org/2000/svg">
<path d="M12.7215 5.6263C12.5419 5.6263 12.4045 5.77422 12.4045 5.94328V11.6489C12.4045 12.0082 12.1192 12.2935 11.76 12.2935H2.10264C1.74339 12.2935 1.45811 12.0082 1.45811 11.6489V2.34026C1.45811 1.98101 1.74339 1.69573 2.10264 1.69573H8.31547C8.49509 1.69573 8.63245 1.54781 8.63245 1.37875C8.63245 1.19913 8.48453 1.06177 8.31547 1.06177H2.03924C1.36302 1.06177 0.813583 1.6112 0.813583 2.28743V11.7335C0.813583 12.4097 1.36302 12.9591 2.03924 12.9591H11.8234C12.4996 12.9591 13.0491 12.4097 13.0491 11.7335V5.94328C13.0491 5.77422 12.9011 5.6263 12.7215 5.6263Z" fill="black"/>
<path d="M12.7849 2.23468L12.2038 1.65355C11.8023 1.25204 11.1683 1.20978 10.8091 1.57959L4.69132 7.69732L6.74113 9.74713L12.8589 3.6294C13.2287 3.27015 13.197 2.63619 12.7849 2.23468ZM11.2423 4.33732L6.69887 8.88072L5.55774 7.75015L10.1223 3.18562L11.2423 4.33732ZM12.4045 3.17506L11.7283 3.85129L10.5977 2.71015L11.2634 2.04449C11.4008 1.90713 11.6438 1.9177 11.7917 2.07619L12.3728 2.65732C12.5313 2.79468 12.5419 3.0377 12.4045 3.17506ZM4.69132 7.71846L4.05736 10.0219C4.02566 10.1275 4.05736 10.2332 4.13132 10.3071C4.20528 10.3811 4.31094 10.4128 4.4166 10.3811L6.72 9.74713L6.24453 9.27166L4.75472 9.68374L5.16679 8.18336L4.69132 7.71846Z" fill="black"/>
</svg>
