<svg width="14" height="14" viewBox="0 0 14 14" fill="none" xmlns="http://www.w3.org/2000/svg">
<path d="M4.66667 11.0414C5.37609 11.4509 6.18083 11.6666 7.00001 11.6666C7.81918 11.6666 8.62389 11.4509 9.33334 11.0414C10.0428 10.6318 10.6319 10.0427 11.0415 9.33325C11.451 8.6238 11.6667 7.81909 11.6667 6.99992C11.6667 6.18074 11.451 5.37601 11.0415 4.66659C10.6319 3.95716 10.0428 3.36805 9.33334 2.95847C8.62389 2.54888 7.81918 2.33325 7.00001 2.33325C6.18083 2.33325 5.37609 2.54888 4.66667 2.95847" stroke="black" stroke-width="0.5"/>
<path d="M1.16667 6.99999L0.938915 6.81782L0.793152 6.99999L0.938915 7.18217L1.16667 6.99999ZM6.41667 7.29166C6.57772 7.29166 6.70833 7.16105 6.70833 6.99999C6.70833 6.83894 6.57772 6.70833 6.41667 6.70833V7.29166ZM3.27225 3.90112L0.938915 6.81782L1.39442 7.18217L3.72775 4.26553L3.27225 3.90112ZM0.938915 7.18217L3.27225 10.0988L3.72775 9.73449L1.39442 6.81782L0.938915 7.18217ZM1.16667 7.29166H6.41667V6.70833H1.16667V7.29166Z" fill="black"/>
</svg>
