<?xml version="1.0" encoding="iso-8859-1"?>
<!-- Uploaded to: SVG Repo, www.svgrepo.com, Generator: SVG Repo Mixer Tools -->
<svg version="1.1" id="Layer_1" xmlns="http://www.w3.org/2000/svg" xmlns:xlink="http://www.w3.org/1999/xlink" 
	 viewBox="0 0 512 512" xml:space="preserve">
<path style="fill:#FF9839;" d="M465.955,469.027H46.045v-68.107c0-22.342,18.112-40.455,40.455-40.455h339
	c22.342,0,40.455,18.112,40.455,40.455v68.107H465.955z"/>
<rect x="71.649" y="469.031" style="fill:#95DEED;" width="368.701" height="32.77"/>
<path style="fill:#FF9839;" d="M210.937,360.465h90.127l30.973-264.818c5.32-45.495-30.232-85.448-76.037-85.448l0,0
	c-45.805,0-81.357,39.953-76.036,85.448L210.937,360.465z"/>
<g>
	<path style="fill:#4C1D1D;" d="M425.5,350.266H312.526l29.642-253.435c2.873-24.573-4.91-49.266-21.357-67.748
		C304.364,10.601,280.741,0,256,0c-24.741,0-48.364,10.601-64.81,29.083c-16.447,18.482-24.231,43.175-21.357,67.749l29.642,253.434
		H86.5c-27.932,0-50.654,22.723-50.654,50.654v68.106c0,5.632,4.567,10.199,10.199,10.199H61.45v22.575
		c0,5.632,4.567,10.199,10.199,10.199h368.701c5.632,0,10.199-4.567,10.199-10.199v-22.575h15.405
		c5.632,0,10.199-4.567,10.199-10.199V400.92C476.154,372.989,453.431,350.266,425.5,350.266z M190.094,94.462
		c-2.198-18.796,3.756-37.683,16.335-51.82C219.007,28.506,237.076,20.398,256,20.398s36.992,8.107,49.572,22.244
		c12.579,14.136,18.533,33.024,16.335,51.819l-29.918,255.805h-71.976L190.094,94.462z M430.151,491.602H81.849v-12.376h348.303
		V491.602z M56.245,458.827v-10.327h124.992c5.632,0,10.199-4.567,10.199-10.199c0-5.632-4.567-10.199-10.199-10.199H56.245V400.92
		c0-16.683,13.573-30.256,30.256-30.256h339c16.683,0,30.256,13.573,30.256,30.256v57.907H56.245z"/>
	<path style="fill:#4C1D1D;" d="M216.058,428.102h-2.049c-5.632,0-10.199,4.567-10.199,10.199c0,5.632,4.567,10.199,10.199,10.199
		h2.049c5.632,0,10.199-4.567,10.199-10.199C226.257,432.67,221.69,428.102,216.058,428.102z"/>
</g>
</svg>