<svg width="13" height="14" viewBox="0 0 13 14" fill="none" xmlns="http://www.w3.org/2000/svg">
<path d="M3.93653 10.4436L3.50537 10.4459C3.50672 10.6731 3.70085 10.8563 3.93897 10.8551L3.93653 10.4436ZM9.11034 10.4156L9.11278 10.8271C9.35086 10.8258 9.54284 10.6405 9.54149 10.4133L9.11034 10.4156ZM3.93897 10.8551L9.11278 10.8271L9.1079 10.0041L3.93408 10.0321L3.93897 10.8551ZM9.54149 10.4133L9.53172 8.76725L8.66942 8.77191L8.67919 10.4179L9.54149 10.4133ZM3.49561 8.79988L3.50537 10.4459L4.36768 10.4412L4.35791 8.79522L3.49561 8.79988ZM6.49657 5.90306C4.82974 5.91207 3.48617 7.20902 3.49561 8.79988L4.35791 8.79522C4.35116 7.65889 5.31086 6.7325 6.50145 6.72606L6.49657 5.90306ZM9.53172 8.76725C9.52228 7.17639 8.1634 5.89405 6.49657 5.90306L6.50145 6.72606C7.69204 6.71962 8.66267 7.63559 8.66942 8.77191L9.53172 8.76725ZM12.1284 10.3993C12.1296 10.601 12.0328 10.8281 11.7823 11.0731C11.53 11.3199 11.1428 11.5619 10.6299 11.775C9.60547 12.2006 8.15841 12.4783 6.53564 12.4871L6.54053 13.3101C8.25141 13.3008 9.81913 13.0095 10.974 12.5296C11.5507 12.29 12.0444 11.9952 12.3995 11.6479C12.7563 11.2988 12.9935 10.8747 12.9907 10.3946L12.1284 10.3993ZM6.53564 12.4871C4.91288 12.4959 3.46259 12.2338 2.43321 11.8193C1.91775 11.6117 1.52775 11.374 1.27253 11.13C1.01914 10.8876 0.919666 10.6616 0.918469 10.4599L0.0561671 10.4645C0.0590159 10.9446 0.301202 11.3662 0.662214 11.7114C1.02138 12.0548 1.5185 12.3442 2.09802 12.5776C3.25859 13.045 4.82964 13.3193 6.54053 13.3101L6.53564 12.4871ZM0.918469 10.4599C0.917287 10.2607 1.01151 10.037 1.2547 9.79568C1.49984 9.55239 1.87645 9.31299 2.37667 9.10098L2.02667 8.34881C1.4627 8.58786 0.980137 8.88079 0.63315 9.22518C0.284223 9.57147 0.0533563 9.9909 0.0561671 10.4645L0.918469 10.4599ZM10.6541 9.05623C11.1569 9.26282 11.5363 9.49813 11.7843 9.73876C12.0303 9.97742 12.1272 10.2001 12.1284 10.3993L12.9907 10.3946C12.9879 9.92097 12.7521 9.50407 12.3991 9.16157C12.048 8.82096 11.562 8.53326 10.9953 8.30033L10.6541 9.05623ZM6.4868 4.25705C5.77244 4.26091 5.19007 3.71134 5.18602 3.02954L4.32372 3.0342C4.33046 4.17053 5.3011 5.08649 6.49169 5.08005L6.4868 4.25705ZM7.77293 3.01555C7.77697 3.69735 7.20116 4.25319 6.4868 4.25705L6.49169 5.08005C7.68227 5.07362 8.64197 4.14722 8.63523 3.01089L7.77293 3.01555ZM6.47215 1.78804C7.18651 1.78418 7.76888 2.33375 7.77293 3.01555L8.63523 3.01089C8.62849 1.87456 7.65785 0.958603 6.46726 0.965039L6.47215 1.78804ZM6.46726 0.965039C5.27668 0.971475 4.31698 1.89787 4.32372 3.0342L5.18602 3.02954C5.18198 2.34774 5.75779 1.7919 6.47215 1.78804L6.46726 0.965039Z" fill="black"/>
</svg>
