<svg width="23" height="25" viewBox="0 0 23 25" fill="none" xmlns="http://www.w3.org/2000/svg">
<path d="M10.5505 10.3333C13.1135 10.3333 15.1913 8.244 15.1913 5.66667C15.1913 3.08934 13.1135 1 10.5505 1C7.98743 1 5.90967 3.08934 5.90967 5.66667C5.90967 8.244 7.98743 10.3333 10.5505 10.3333Z" stroke="#ECF1FF"/>
<path d="M17.5112 10.6835C18.1153 11.2302 18.454 11.5368 19.0581 12.0835L22.152 8.5835" stroke="#ECF1FF" stroke-linecap="round" stroke-linejoin="round"/>
<path d="M19.8289 19.6666C19.8318 19.475 19.8318 19.2804 19.8318 19.0833C19.8318 16.1837 15.6763 13.8333 10.5502 13.8333C5.42408 13.8333 1.26855 16.1837 1.26855 19.0833C1.26855 21.9828 1.26855 24.3333 10.5502 24.3333C13.1386 24.3333 15.0051 24.1504 16.3512 23.8239" stroke="#ECF1FF" stroke-linecap="round"/>
</svg>
