<svg width="13" height="13" viewBox="0 0 13 13" fill="none" xmlns="http://www.w3.org/2000/svg">
<path d="M6.70834 3.37511C6.82371 3.37511 6.93649 3.3409 7.03242 3.2768C7.12835 3.21271 7.20312 3.1216 7.24727 3.01501C7.29142 2.90842 7.30297 2.79113 7.28046 2.67798C7.25796 2.56482 7.2024 2.46088 7.12082 2.3793C7.03924 2.29772 6.9353 2.24216 6.82214 2.21966C6.70899 2.19715 6.5917 2.2087 6.48511 2.25285C6.37852 2.297 6.28741 2.37177 6.22331 2.4677C6.15922 2.56363 6.12501 2.67641 6.12501 2.79178C6.12531 2.9464 6.18687 3.09459 6.2962 3.20392C6.40553 3.31325 6.55372 3.37481 6.70834 3.37511ZM6.41667 9.50011V4.25011H7.58334V4.83345H7.00001V9.50011H7.58334V10.0834H5.83334V9.50011H6.41667ZM0.700006 6.29178C0.700006 7.48012 1.05239 8.64177 1.71259 9.62983C2.3728 10.6179 3.31117 11.388 4.40905 11.8428C5.50693 12.2975 6.715 12.4165 7.88051 12.1847C9.04601 11.9528 10.1166 11.3806 10.9569 10.5403C11.7972 9.70003 12.3694 8.62945 12.6012 7.46395C12.8331 6.29845 12.7141 5.09037 12.2593 3.99249C11.8046 2.89461 11.0345 1.95624 10.0464 1.29603C9.05832 0.63583 7.89667 0.283448 6.70834 0.283448C5.91925 0.283218 5.13785 0.438471 4.40878 0.740336C3.67971 1.0422 3.01726 1.48476 2.45929 2.04273C1.90132 2.60071 1.45876 3.26315 1.15689 3.99222C0.855029 4.72129 0.699776 5.50269 0.700006 6.29178ZM1.28334 6.29178C1.28334 5.21882 1.60151 4.16995 2.19762 3.27781C2.79372 2.38568 3.64099 1.69034 4.63228 1.27973C5.62357 0.869129 6.71436 0.761696 7.7667 0.971021C8.81905 1.18035 9.78569 1.69703 10.5444 2.45573C11.3031 3.21443 11.8198 4.18107 12.0291 5.23342C12.2384 6.28576 12.131 7.37655 11.7204 8.36784C11.3098 9.35913 10.6144 10.2064 9.72231 10.8025C8.83017 11.3986 7.7813 11.7168 6.70834 11.7168C5.27001 11.7152 3.89104 11.1432 2.87399 10.1261C1.85694 9.10908 1.28488 7.73011 1.28334 6.29178Z" fill="black"/>
</svg>
