<svg width="12" height="14" viewBox="0 0 12 14" fill="none" xmlns="http://www.w3.org/2000/svg">
<path d="M6 0C3.10047 0 0.75 2.35047 0.75 5.25C0.75 6.49206 1.29731 7.58428 1.90303 8.53125L5.643 13.8154C5.72503 13.9313 5.85825 14 6 14C6.14175 14 6.27497 13.9313 6.357 13.8154L10.097 8.53125C10.6758 7.75206 11.25 6.49206 11.25 5.25C11.25 2.35047 8.89953 0 6 0ZM9.51903 8.53125H9.51684L6 13.3438L2.48316 8.53125H2.48097C1.94634 7.75884 1.1875 6.51853 1.1875 5.25C1.1875 2.59219 3.34219 0.4375 6 0.4375C8.65781 0.4375 10.8125 2.59219 10.8125 5.25C10.8125 6.51853 9.99897 7.82709 9.51903 8.53125Z" fill="#231F20"/>
<path d="M6 3.0625C4.79184 3.0625 3.8125 4.04206 3.8125 5.25C3.8125 6.45794 4.79184 7.4375 6 7.4375C7.20816 7.4375 8.1875 6.45794 8.1875 5.25C8.1875 4.04206 7.20816 3.0625 6 3.0625ZM6 7C5.03356 7 4.25 6.21644 4.25 5.25C4.25 4.28356 5.03356 3.5 6 3.5C6.96644 3.5 7.75 4.28356 7.75 5.25C7.75 6.21644 6.96644 7 6 7Z" fill="#231F20"/>
<path d="M6 2.1875C4.30862 2.1875 2.9375 3.55862 2.9375 5.25C2.9375 6.94137 4.30862 8.3125 6 8.3125C7.69137 8.3125 9.0625 6.94137 9.0625 5.25C9.0625 3.55862 7.69137 2.1875 6 2.1875ZM6 7.875C4.55034 7.875 3.375 6.69966 3.375 5.25C3.375 3.80034 4.55034 2.625 6 2.625C7.44966 2.625 8.625 3.80034 8.625 5.25C8.625 6.69966 7.44966 7.875 6 7.875Z" fill="#231F20"/>
</svg>
