<svg width="12" height="12" viewBox="0 0 12 12" fill="none" xmlns="http://www.w3.org/2000/svg">
<g clip-path="url(#clip0_1_5444)">
<path d="M0.257742 5.92815C0.25746 6.93638 0.522893 7.92085 1.02761 8.78857L0.209473 11.7533L3.26645 10.9578C4.11196 11.4146 5.05931 11.654 6.022 11.6541H6.02453C9.20255 11.6541 11.7895 9.0874 11.7909 5.93266C11.7915 4.40396 11.1922 2.96647 10.1034 1.88498C9.01477 0.803589 7.56693 0.207729 6.02429 0.207031C2.8459 0.207031 0.259101 2.77354 0.257789 5.92815" fill="url(#paint0_linear_1_5444)"/>
<path d="M0.0516084 5.92633C0.0512803 6.97084 0.326226 7.99051 0.848937 8.8893L0.00146484 11.9603L3.16805 11.1363C4.04055 11.6084 5.02289 11.8573 6.02248 11.8577H6.02506C9.3171 11.8577 11.997 9.19874 11.9984 5.93107C11.999 4.34744 11.3781 2.85828 10.2504 1.73805C9.12257 0.617953 7.62295 0.000651163 6.02506 0C2.73246 0 0.0529205 2.6586 0.0516084 5.92633ZM1.93738 8.73451L1.81914 8.54823C1.32211 7.76386 1.05977 6.85744 1.06015 5.9267C1.06123 3.21065 3.28835 1.00093 6.02694 1.00093C7.35316 1.00149 8.59953 1.5146 9.53698 2.44558C10.4744 3.37665 10.9902 4.61433 10.9899 5.9307C10.9887 8.64674 8.76149 10.8567 6.02506 10.8567H6.02309C5.13208 10.8563 4.25823 10.6188 3.49614 10.17L3.31478 10.0633L1.43566 10.5522L1.93738 8.73446V8.73451Z" fill="url(#paint1_linear_1_5444)"/>
<path d="M4.53201 3.44885C4.4202 3.2022 4.30252 3.19723 4.19619 3.1929C4.10912 3.18918 4.00958 3.18946 3.91014 3.18946C3.8106 3.18946 3.64888 3.22662 3.51218 3.37476C3.37534 3.52304 2.98975 3.88136 2.98975 4.61016C2.98975 5.33899 3.52459 6.04332 3.59915 6.14225C3.67381 6.24099 4.63169 7.78443 6.14874 8.3782C7.40955 8.87164 7.66612 8.7735 7.93976 8.74876C8.21344 8.72411 8.82284 8.39053 8.94717 8.04462C9.07159 7.69876 9.07159 7.4023 9.03429 7.34034C8.99699 7.27862 8.89745 7.24155 8.74819 7.1675C8.59888 7.09341 7.8651 6.73504 7.72831 6.6856C7.59147 6.6362 7.49198 6.61155 7.39244 6.75988C7.2929 6.90797 7.00709 7.24155 6.91997 7.34034C6.83294 7.43936 6.74582 7.45169 6.59661 7.3776C6.44726 7.30327 5.96658 7.14704 5.39631 6.64243C4.95261 6.24978 4.65306 5.7649 4.56599 5.61657C4.47891 5.46848 4.55666 5.3882 4.6315 5.31439C4.69856 5.24802 4.78081 5.14141 4.85551 5.05495C4.92993 4.96843 4.95476 4.90671 5.00453 4.80792C5.05435 4.70904 5.02942 4.62253 4.99216 4.54843C4.95476 4.47434 4.66473 3.74174 4.53201 3.44885Z" fill="white"/>
</g>
<defs>
<linearGradient id="paint0_linear_1_5444" x1="579.28" y1="1154.84" x2="579.28" y2="0.207031" gradientUnits="userSpaceOnUse">
<stop stop-color="#1FAF38"/>
<stop offset="1" stop-color="#60D669"/>
</linearGradient>
<linearGradient id="paint1_linear_1_5444" x1="599.849" y1="1196.03" x2="599.849" y2="0" gradientUnits="userSpaceOnUse">
<stop stop-color="#F9F9F9"/>
<stop offset="1" stop-color="white"/>
</linearGradient>
<clipPath id="clip0_1_5444">
<rect width="12" height="12" fill="white"/>
</clipPath>
</defs>
</svg>
